<?xml version="1.0" encoding="UTF-8"?>
<svg xmlns="http://www.w3.org/2000/svg" xmlns:xlink="http://www.w3.org/1999/xlink" width="30px" height="30px" viewBox="0 0 30 30" version="1.1">
<g id="surface1">
<path style=" stroke:none;fill-rule:nonzero;fill:rgb(0%,0%,0%);fill-opacity:1;" d="M 19.375 15 C 19.375 17.417969 17.417969 19.375 15 19.375 C 12.582031 19.375 10.625 17.417969 10.625 15 C 10.625 12.582031 12.582031 10.625 15 10.625 C 17.417969 10.625 19.375 12.582031 19.375 15 Z M 19.375 15 "/>
<path style=" stroke:none;fill-rule:nonzero;fill:rgb(0%,0%,0%);fill-opacity:1;" d="M 15 4.375 C 19.289062 4.375 22.65625 6.292969 25.066406 8.425781 C 27.476562 10.554688 28.984375 12.9375 29.585938 14 C 29.945312 14.621094 29.945312 15.378906 29.585938 16 C 28.984375 17.0625 27.476562 19.445312 25.066406 21.574219 C 22.65625 23.707031 19.289062 25.625 15 25.625 C 10.710938 25.625 7.34375 23.707031 4.933594 21.574219 C 2.523438 19.449219 1.015625 17.0625 0.414062 16 C 0.0546875 15.382812 0.0546875 14.621094 0.414062 14.003906 C 1.015625 12.941406 2.523438 10.554688 4.933594 8.425781 C 7.34375 6.292969 10.710938 4.375 15 4.375 Z M 2.042969 14.929688 C 2.019531 15.023438 2.027344 15.046875 2.042969 15.070312 C 2.59375 16.039062 3.980469 18.230469 6.175781 20.171875 C 8.363281 22.105469 11.304688 23.75 15 23.75 C 18.695312 23.75 21.636719 22.105469 23.824219 20.171875 C 26.019531 18.230469 27.40625 16.039062 27.957031 15.070312 C 27.40625 13.964844 26.019531 11.769531 23.824219 9.828125 C 21.636719 7.894531 18.695312 6.25 15 6.25 C 11.304688 6.25 8.363281 7.890625 6.175781 9.832031 C 3.980469 11.769531 2.59375 13.964844 2.042969 14.929688 Z M 2.042969 14.929688 "/>
</g>
</svg>
