<?xml version="1.0" encoding="UTF-8"?>
<svg xmlns="http://www.w3.org/2000/svg" xmlns:xlink="http://www.w3.org/1999/xlink" width="30px" height="30px" viewBox="0 0 30 30" version="1.1">
<g id="surface1">
<path style=" stroke:none;fill-rule:nonzero;fill:rgb(0%,0%,0%);fill-opacity:1;" d="M 5.625 4.6875 L 5.625 25.3125 C 5.625 25.832031 5.207031 26.25 4.6875 26.25 C 4.167969 26.25 3.75 25.832031 3.75 25.3125 L 3.75 4.6875 C 3.75 4.167969 4.167969 3.75 4.6875 3.75 C 5.207031 3.75 5.625 4.167969 5.625 4.6875 Z M 7.5 12.1875 L 7.5 7.5 C 7.5 6.464844 8.339844 5.625 9.375 5.625 L 20.625 5.625 C 21.660156 5.625 22.5 6.464844 22.5 7.5 L 22.5 12.1875 C 22.5 13.222656 21.660156 14.0625 20.625 14.0625 L 9.375 14.0625 C 8.339844 14.0625 7.5 13.222656 7.5 12.1875 Z M 9.375 12.1875 L 20.625 12.1875 L 20.625 7.5 L 9.375 7.5 Z M 27.1875 17.8125 L 27.1875 22.5 C 27.1875 23.535156 26.347656 24.375 25.3125 24.375 L 9.375 24.375 C 8.339844 24.375 7.5 23.535156 7.5 22.5 L 7.5 17.8125 C 7.5 16.777344 8.339844 15.9375 9.375 15.9375 L 25.3125 15.9375 C 26.347656 15.9375 27.1875 16.777344 27.1875 17.8125 Z M 25.3125 22.5 L 25.3125 17.8125 L 9.375 17.8125 L 9.375 22.5 Z M 25.3125 22.5 "/>
</g>
</svg>
