<?xml version="1.0" encoding="UTF-8"?>
<svg xmlns="http://www.w3.org/2000/svg" xmlns:xlink="http://www.w3.org/1999/xlink" width="30px" height="30px" viewBox="0 0 30 30" version="1.1">
<g id="surface1">
<path style=" stroke:none;fill-rule:nonzero;fill:rgb(0%,0%,0%);fill-opacity:1;" d="M 8.476562 15.691406 L 9.71875 15.691406 C 10.929688 15.691406 11.699219 16.398438 11.707031 17.378906 C 11.722656 18.382812 10.90625 19.101562 9.671875 19.101562 C 8.550781 19.09375 7.726562 18.492188 7.667969 17.683594 L 5.625 17.683594 C 5.679688 19.398438 7.109375 20.847656 9.660156 20.847656 C 11.988281 20.847656 13.945312 19.609375 13.921875 17.476562 C 13.898438 15.691406 12.519531 14.890625 11.5 14.792969 L 11.5 14.675781 C 12.324219 14.542969 13.609375 13.6875 13.578125 12.097656 C 13.550781 10.398438 12.078125 9.152344 9.726562 9.164062 C 7.269531 9.171875 5.898438 10.539062 5.839844 12.292969 L 7.90625 12.292969 C 7.949219 11.5625 8.625 10.886719 9.660156 10.886719 C 10.660156 10.886719 11.402344 11.503906 11.402344 12.410156 C 11.410156 13.308594 10.683594 13.976562 9.660156 13.976562 L 8.476562 13.976562 Z M 15.234375 9.375 L 15.234375 20.625 L 19.339844 20.625 C 22.734375 20.625 24.375 18.550781 24.375 14.972656 C 24.375 11.421875 22.761719 9.375 19.339844 9.375 Z M 17.460938 11.191406 L 19.042969 11.191406 C 21.128906 11.191406 22.082031 12.476562 22.082031 15.015625 C 22.082031 17.550781 21.136719 18.800781 19.042969 18.800781 L 17.460938 18.800781 Z M 17.460938 11.191406 "/>
<path style=" stroke:none;fill-rule:nonzero;fill:rgb(0%,0%,0%);fill-opacity:1;" d="M 26.25 5.625 C 27.285156 5.625 28.125 6.464844 28.125 7.5 L 28.125 22.5 C 28.125 23.535156 27.285156 24.375 26.25 24.375 L 3.75 24.375 C 2.714844 24.375 1.875 23.535156 1.875 22.5 L 1.875 7.5 C 1.875 6.464844 2.714844 5.625 3.75 5.625 Z M 3.75 3.75 C 1.679688 3.75 0 5.429688 0 7.5 L 0 22.5 C 0 24.570312 1.679688 26.25 3.75 26.25 L 26.25 26.25 C 28.320312 26.25 30 24.570312 30 22.5 L 30 7.5 C 30 5.429688 28.320312 3.75 26.25 3.75 Z M 3.75 3.75 "/>
</g>
</svg>
