<?xml version="1.0" encoding="UTF-8"?>
<svg xmlns="http://www.w3.org/2000/svg" xmlns:xlink="http://www.w3.org/1999/xlink" width="30px" height="30px" viewBox="0 0 30 30" version="1.1">
<g id="surface1">
<path style=" stroke:none;fill-rule:evenodd;fill:rgb(0%,0%,0%);fill-opacity:1;" d="M 6.5625 18.75 C 6.042969 18.75 5.625 18.332031 5.625 17.8125 L 5.625 2.8125 C 5.625 2.292969 6.042969 1.875 6.5625 1.875 L 23.4375 1.875 C 23.957031 1.875 24.375 2.292969 24.375 2.8125 L 24.375 17.8125 C 24.375 18.332031 23.957031 18.75 23.4375 18.75 L 19.6875 18.75 C 19.167969 18.75 18.75 19.167969 18.75 19.6875 C 18.75 20.207031 19.167969 20.625 19.6875 20.625 L 23.4375 20.625 C 24.992188 20.625 26.25 19.367188 26.25 17.8125 L 26.25 2.8125 C 26.25 1.257812 24.992188 0 23.4375 0 L 6.5625 0 C 5.007812 0 3.75 1.257812 3.75 2.8125 L 3.75 17.8125 C 3.75 19.367188 5.007812 20.625 6.5625 20.625 L 10.3125 20.625 C 10.832031 20.625 11.25 20.207031 11.25 19.6875 C 11.25 19.167969 10.832031 18.75 10.3125 18.75 Z M 6.5625 18.75 "/>
<path style=" stroke:none;fill-rule:evenodd;fill:rgb(0%,0%,0%);fill-opacity:1;" d="M 14.335938 29.726562 C 14.511719 29.902344 14.75 30 15 30 C 15.25 30 15.488281 29.902344 15.664062 29.726562 L 21.289062 24.101562 C 21.65625 23.734375 21.65625 23.140625 21.289062 22.773438 C 20.921875 22.40625 20.328125 22.40625 19.960938 22.773438 L 15.9375 26.800781 L 15.9375 10.3125 C 15.9375 9.792969 15.519531 9.375 15 9.375 C 14.480469 9.375 14.0625 9.792969 14.0625 10.3125 L 14.0625 26.800781 L 10.039062 22.773438 C 9.671875 22.40625 9.078125 22.40625 8.710938 22.773438 C 8.34375 23.140625 8.34375 23.734375 8.710938 24.101562 Z M 14.335938 29.726562 "/>
</g>
</svg>
