<?xml version="1.0" encoding="UTF-8" standalone="no"?><!DOCTYPE svg PUBLIC "-//W3C//DTD SVG 1.1//EN" "http://www.w3.org/Graphics/SVG/1.1/DTD/svg11.dtd"><svg width="30px" height="30px" viewBox="0 0 30 30" version="1.1" xmlns="http://www.w3.org/2000/svg" xmlns:xlink="http://www.w3.org/1999/xlink" xml:space="preserve" xmlns:serif="http://www.serif.com/" style="fill-rule:evenodd;clip-rule:evenodd;stroke-linecap:round;stroke-linejoin:round;stroke-miterlimit:10;"><g><rect x="10.671" y="5.209" width="7.68" height="5.503" style="fill:#fff;stroke:#000;stroke-width:1.5px;"/><rect x="5.635" y="16.467" width="17.893" height="9.267" style="fill:#fff;stroke:#000;stroke-width:1.5px;"/><rect x="9.966" y="19.191" width="3.231" height="6.543" style="fill:#fff;stroke:#000;stroke-width:1.5px;"/><path d="M14.612,8.344l-0.163,0l-12.193,8.091l24.549,-0l-12.193,-8.091Z" style="fill:#fff;fill-rule:nonzero;stroke:#000;stroke-width:1.5px;"/><path d="M14.531,1.73l-0.067,-0l-5.008,3.406l10.084,-0l-5.009,-3.406Z" style="fill:#fff;fill-rule:nonzero;stroke:#000;stroke-width:1.5px;"/><g><circle cx="22.165" cy="20.417" r="5.79" style="fill:#fff;"/><path d="M22.165,13.479c-3.825,-0 -6.939,3.112 -6.939,6.939c0,3.825 3.114,6.937 6.939,6.937c3.826,0 6.94,-3.112 6.94,-6.937c-0,-3.827 -3.114,-6.939 -6.94,-6.939Zm4.188,8.476c-0.134,0.201 -0.354,0.322 -0.585,0.322c-0.232,0 -0.451,-0.121 -0.585,-0.322l-0.87,-1.304c-0.176,-0.264 -0.105,-0.622 0.159,-0.797c0.211,-0.141 0.48,-0.123 0.67,0.023c-0.257,-1.469 -1.541,-2.588 -3.081,-2.588c-1.727,-0 -3.132,1.404 -3.132,3.13c0,1.727 1.405,3.13 3.132,3.13c0.317,0 0.574,0.259 0.574,0.575c-0,0.319 -0.257,0.576 -0.574,0.576c-2.361,-0 -4.281,-1.92 -4.281,-4.281c0,-2.36 1.92,-4.281 4.281,-4.281c2.2,0 4.019,1.672 4.254,3.812c0.187,-0.211 0.505,-0.257 0.747,-0.096c0.265,0.175 0.336,0.533 0.16,0.797l-0.869,1.304Z" style="fill-rule:nonzero;"/></g></g></svg>