<?xml version="1.0" encoding="UTF-8"?>
<svg xmlns="http://www.w3.org/2000/svg" xmlns:xlink="http://www.w3.org/1999/xlink" width="30px" height="30px" viewBox="0 0 30 30" version="1.1">
<g id="surface1">
<path style=" stroke:none;fill-rule:nonzero;fill:rgb(0%,0%,0%);fill-opacity:1;" d="M 25.191406 22.851562 L 4.808594 22.851562 C 4.675781 22.851562 4.570312 22.957031 4.570312 23.085938 L 4.570312 24.84375 C 4.570312 24.972656 4.675781 25.078125 4.808594 25.078125 L 25.191406 25.078125 C 25.324219 25.078125 25.429688 24.972656 25.429688 24.84375 L 25.429688 23.085938 C 25.429688 22.957031 25.324219 22.851562 25.191406 22.851562 Z M 14.816406 19.601562 C 14.859375 19.65625 14.929688 19.691406 15 19.691406 C 15.070312 19.691406 15.140625 19.65625 15.183594 19.601562 L 18.464844 15.449219 C 18.585938 15.296875 18.476562 15.070312 18.28125 15.070312 L 16.109375 15.070312 L 16.109375 5.15625 C 16.109375 5.027344 16.003906 4.921875 15.875 4.921875 L 14.117188 4.921875 C 13.988281 4.921875 13.882812 5.027344 13.882812 5.15625 L 13.882812 15.066406 L 11.71875 15.066406 C 11.523438 15.066406 11.414062 15.292969 11.535156 15.445312 Z M 14.816406 19.601562 "/>
</g>
</svg>
