<?xml version="1.0" encoding="UTF-8"?>
<svg xmlns="http://www.w3.org/2000/svg" xmlns:xlink="http://www.w3.org/1999/xlink" width="30px" height="30px" viewBox="0 0 30 30" version="1.1">
<g id="surface1">
<path style="fill:none;stroke-width:2;stroke-linecap:round;stroke-linejoin:round;stroke:rgb(0%,0%,0%);stroke-opacity:1;stroke-miterlimit:4;" d="M 4 5 C 4 5.553125 4.446875 6 5 6 C 5.553125 6 6 5.553125 6 5 C 6 4.446875 5.553125 4 5 4 C 4.446875 4 4 4.446875 4 5 " transform="matrix(1.25,0,0,1.25,0,0)"/>
<path style="fill:none;stroke-width:2;stroke-linecap:round;stroke-linejoin:round;stroke:rgb(0%,0%,0%);stroke-opacity:1;stroke-miterlimit:4;" d="M 11 5 C 11 5.553125 11.446875 6 12 6 C 12.553125 6 13 5.553125 13 5 C 13 4.446875 12.553125 4 12 4 C 11.446875 4 11 4.446875 11 5 " transform="matrix(1.25,0,0,1.25,0,0)"/>
<path style="fill:none;stroke-width:2;stroke-linecap:round;stroke-linejoin:round;stroke:rgb(0%,0%,0%);stroke-opacity:1;stroke-miterlimit:4;" d="M 18 5 C 18 5.553125 18.446875 6 19 6 C 19.553125 6 20 5.553125 20 5 C 20 4.446875 19.553125 4 19 4 C 18.446875 4 18 4.446875 18 5 " transform="matrix(1.25,0,0,1.25,0,0)"/>
<path style="fill:none;stroke-width:2;stroke-linecap:round;stroke-linejoin:round;stroke:rgb(0%,0%,0%);stroke-opacity:1;stroke-miterlimit:4;" d="M 4 12 C 4 12.553125 4.446875 13 5 13 C 5.553125 13 6 12.553125 6 12 C 6 11.446875 5.553125 11 5 11 C 4.446875 11 4 11.446875 4 12 " transform="matrix(1.25,0,0,1.25,0,0)"/>
<path style="fill:none;stroke-width:2;stroke-linecap:round;stroke-linejoin:round;stroke:rgb(0%,0%,0%);stroke-opacity:1;stroke-miterlimit:4;" d="M 11 12 C 11 12.553125 11.446875 13 12 13 C 12.553125 13 13 12.553125 13 12 C 13 11.446875 12.553125 11 12 11 C 11.446875 11 11 11.446875 11 12 " transform="matrix(1.25,0,0,1.25,0,0)"/>
<path style="fill:none;stroke-width:2;stroke-linecap:round;stroke-linejoin:round;stroke:rgb(0%,0%,0%);stroke-opacity:1;stroke-miterlimit:4;" d="M 18 12 C 18 12.553125 18.446875 13 19 13 C 19.553125 13 20 12.553125 20 12 C 20 11.446875 19.553125 11 19 11 C 18.446875 11 18 11.446875 18 12 " transform="matrix(1.25,0,0,1.25,0,0)"/>
<path style="fill:none;stroke-width:2;stroke-linecap:round;stroke-linejoin:round;stroke:rgb(0%,0%,0%);stroke-opacity:1;stroke-miterlimit:4;" d="M 4 19 C 4 19.553125 4.446875 20 5 20 C 5.553125 20 6 19.553125 6 19 C 6 18.446875 5.553125 18 5 18 C 4.446875 18 4 18.446875 4 19 " transform="matrix(1.25,0,0,1.25,0,0)"/>
<path style="fill:none;stroke-width:2;stroke-linecap:round;stroke-linejoin:round;stroke:rgb(0%,0%,0%);stroke-opacity:1;stroke-miterlimit:4;" d="M 11 19 C 11 19.553125 11.446875 20 12 20 C 12.553125 20 13 19.553125 13 19 C 13 18.446875 12.553125 18 12 18 C 11.446875 18 11 18.446875 11 19 " transform="matrix(1.25,0,0,1.25,0,0)"/>
<path style="fill:none;stroke-width:2;stroke-linecap:round;stroke-linejoin:round;stroke:rgb(0%,0%,0%);stroke-opacity:1;stroke-miterlimit:4;" d="M 18 19 C 18 19.553125 18.446875 20 19 20 C 19.553125 20 20 19.553125 20 19 C 20 18.446875 19.553125 18 19 18 C 18.446875 18 18 18.446875 18 19 " transform="matrix(1.25,0,0,1.25,0,0)"/>
</g>
</svg>
