<svg xmlns="http://www.w3.org/2000/svg" viewBox="0 0 256 256" width="256px" height="256px">
  <rect width="256" height="256" fill="none" transform="matrix(1, 0, 0, 1, -3.552713678800501e-15, 0)"/>
  <path d="M 62.443 37.135 L 62.443 143.646 L 89.071 143.646 L 89.071 223.528 L 151.2 117.019 L 115.699 117.019 L 151.2 37.135 L 62.443 37.135 Z M 204.456 37.135 L 186.706 37.135 L 158.304 117.019 L 175.165 117.019 L 181.38 99.268 L 209.781 99.268 L 215.994 117.019 L 232.859 117.019 L 204.456 37.135 Z M 185.371 87.284 L 195.58 54.887 L 205.788 87.284 L 185.371 87.284 Z" style="" transform="matrix(1, 0, 0, 1, -3.552713678800501e-15, 0)"/>
  <path style="fill: rgb(216, 216, 216); stroke: rgb(0, 0, 0); stroke-width: 20px; stroke-linecap: round;" d="M 27.486 35.886 L 28.171 225.143" transform="matrix(1, 0, 0, 1, -3.552713678800501e-15, 0)"/>
</svg>