<?xml version="1.0" encoding="UTF-8"?>
<svg xmlns="http://www.w3.org/2000/svg" xmlns:xlink="http://www.w3.org/1999/xlink" width="30px" height="30px" viewBox="0 0 30 30" version="1.1">
<g id="surface1">
<path style=" stroke:none;fill-rule:nonzero;fill:rgb(0%,0%,0%);fill-opacity:1;" d="M 25.191406 4.921875 L 4.808594 4.921875 C 4.675781 4.921875 4.570312 5.027344 4.570312 5.15625 L 4.570312 6.914062 C 4.570312 7.042969 4.675781 7.148438 4.808594 7.148438 L 25.191406 7.148438 C 25.324219 7.148438 25.429688 7.042969 25.429688 6.914062 L 25.429688 5.15625 C 25.429688 5.027344 25.324219 4.921875 25.191406 4.921875 Z M 15.183594 10.398438 C 15.140625 10.34375 15.070312 10.308594 15 10.308594 C 14.929688 10.308594 14.859375 10.34375 14.816406 10.398438 L 11.535156 14.550781 C 11.480469 14.621094 11.46875 14.71875 11.507812 14.796875 C 11.546875 14.878906 11.628906 14.929688 11.71875 14.929688 L 13.882812 14.929688 L 13.882812 24.84375 C 13.882812 24.972656 13.988281 25.078125 14.117188 25.078125 L 15.875 25.078125 C 16.003906 25.078125 16.109375 24.972656 16.109375 24.84375 L 16.109375 14.933594 L 18.28125 14.933594 C 18.476562 14.933594 18.585938 14.707031 18.464844 14.554688 Z M 15.183594 10.398438 "/>
</g>
</svg>
