<?xml version="1.0" encoding="UTF-8"?>
<svg xmlns="http://www.w3.org/2000/svg" xmlns:xlink="http://www.w3.org/1999/xlink" width="30px" height="30px" viewBox="0 0 30 30" version="1.1">
<g id="surface1">
<path style=" stroke:none;fill-rule:evenodd;fill:rgb(0%,0%,0%);fill-opacity:1;" d="M 14.578125 1.59375 C 14.84375 1.46875 15.15625 1.46875 15.421875 1.59375 L 27.421875 7.195312 C 27.773438 7.359375 28 7.710938 28 8.101562 L 28 21.898438 C 28 22.289062 27.773438 22.640625 27.421875 22.804688 L 15.421875 28.40625 C 15.15625 28.53125 14.84375 28.53125 14.578125 28.40625 L 2.578125 22.804688 C 2.226562 22.640625 2 22.289062 2 21.898438 L 2 8.101562 C 2 7.710938 2.226562 7.359375 2.578125 7.195312 Z M 4 9.613281 L 14 13.863281 L 14 25.929688 L 4 21.261719 Z M 16 25.929688 L 26 21.261719 L 26 9.613281 L 16 13.863281 Z M 15 12.113281 L 24.542969 8.058594 L 15 3.605469 L 5.457031 8.058594 Z M 15 12.113281 "/>
</g>
</svg>
