<?xml version="1.0" encoding="utf-8"?>
<svg viewBox="0 0 256 256" width="256px" height="256px" xmlns="http://www.w3.org/2000/svg" xmlns:bx="https://boxy-svg.com"><defs><bx:export><bx:file format="svg"/></bx:export></defs><g transform="matrix(1, 0, 0, 1, 58.538522, 103.924036)"><path d="M 183.402 75.572 L 183.402 117.811 C 183.402 121.144 180.701 123.845 177.368 123.845 L 20.479 123.845 C 17.147 123.845 14.444 121.144 14.444 117.811 L 14.444 75.572 L 44.616 15.23 L 153.231 15.23 L 183.402 75.572 Z" stroke="currentColor" stroke-linecap="round" stroke-linejoin="round" stroke-width="12" style="fill: rgb(224, 224, 224); fill-opacity: 0.79;"/><line x1="74.787" y1="75.572" x2="74.787" y2="123.845" stroke="currentColor" stroke-linecap="round" stroke-linejoin="round" stroke-width="12" style="fill: rgb(224, 224, 224); fill-opacity: 0.79;"/><polyline points="183.402 75.572 74.787 75.572 44.616 15.23" stroke="currentColor" stroke-linecap="round" stroke-linejoin="round" stroke-width="12" style="fill: rgb(224, 224, 224); fill-opacity: 0.79;"/></g><g transform="matrix(1, 0, 0, 1, -2.999997, 15.307678)"><path d="M 183.402 75.572 L 183.402 117.811 C 183.402 121.144 180.701 123.845 177.368 123.845 L 20.479 123.845 C 17.147 123.845 14.444 121.144 14.444 117.811 L 14.444 75.572 L 44.616 15.23 L 153.231 15.23 L 183.402 75.572 Z" stroke="currentColor" stroke-linecap="round" stroke-linejoin="round" stroke-width="12" style="fill: rgb(255, 255, 255); fill-rule: nonzero;"/><line x1="74.787" y1="75.572" x2="74.787" y2="123.845" fill="none" stroke="currentColor" stroke-linecap="round" stroke-linejoin="round" stroke-width="12" style="fill-rule: nonzero; fill-opacity: 0.65;"/><polyline points="183.402 75.572 74.787 75.572 44.616 15.23" fill="none" stroke="currentColor" stroke-linecap="round" stroke-linejoin="round" stroke-width="12" style="fill-rule: nonzero;"/></g></svg>