<?xml version="1.0" encoding="UTF-8"?>
<svg xmlns="http://www.w3.org/2000/svg" xmlns:xlink="http://www.w3.org/1999/xlink" width="30px" height="30px" viewBox="0 0 30 30" version="1.1">
<g id="surface1">
<path style="fill-rule:nonzero;fill:rgb(87.843138%,87.843138%,87.843138%);fill-opacity:0.788235;stroke-width:12;stroke-linecap:round;stroke-linejoin:round;stroke:rgb(0%,0%,0%);stroke-opacity:1;stroke-miterlimit:4;" d="M 183.394813 75.575966 L 183.394813 117.809299 C 183.394813 121.142633 180.694813 123.842633 177.361479 123.842633 L 20.494813 123.842633 C 17.161479 123.842633 14.428146 121.142633 14.428146 117.809299 L 14.428146 75.575966 L 44.628146 15.242633 L 153.228146 15.242633 Z M 183.394813 75.575966 " transform="matrix(0.117188,0,0,0.117188,6.859983,12.178598)"/>
<path style="fill:none;stroke-width:12;stroke-linecap:round;stroke-linejoin:round;stroke:rgb(0%,0%,0%);stroke-opacity:1;stroke-miterlimit:4;" d="M 74.794813 75.575966 L 74.794813 123.842633 " transform="matrix(0.117188,0,0,0.117188,6.859983,12.178598)"/>
<path style="fill-rule:nonzero;fill:rgb(87.843138%,87.843138%,87.843138%);fill-opacity:0.788235;stroke-width:12;stroke-linecap:round;stroke-linejoin:round;stroke:rgb(0%,0%,0%);stroke-opacity:1;stroke-miterlimit:4;" d="M 183.394813 75.575966 L 74.794813 75.575966 L 44.628146 15.242633 " transform="matrix(0.117188,0,0,0.117188,6.859983,12.178598)"/>
<path style="fill-rule:nonzero;fill:rgb(100%,100%,100%);fill-opacity:1;stroke-width:12;stroke-linecap:round;stroke-linejoin:round;stroke:rgb(0%,0%,0%);stroke-opacity:1;stroke-miterlimit:4;" d="M 183.399997 75.558988 L 183.399997 117.825655 C 183.399997 121.158988 180.699997 123.858988 177.366664 123.858988 L 20.466664 123.858988 C 17.13333 123.858988 14.43333 121.158988 14.43333 117.825655 L 14.43333 75.558988 L 44.599997 15.225655 L 153.23333 15.225655 Z M 183.399997 75.558988 " transform="matrix(0.117188,0,0,0.117188,-0.351562,1.793869)"/>
<path style="fill:none;stroke-width:12;stroke-linecap:round;stroke-linejoin:round;stroke:rgb(0%,0%,0%);stroke-opacity:1;stroke-miterlimit:4;" d="M 74.799997 75.558988 L 74.799997 123.858988 " transform="matrix(0.117188,0,0,0.117188,-0.351562,1.793869)"/>
<path style="fill:none;stroke-width:12;stroke-linecap:round;stroke-linejoin:round;stroke:rgb(0%,0%,0%);stroke-opacity:1;stroke-miterlimit:4;" d="M 183.399997 75.558988 L 74.799997 75.558988 L 44.599997 15.225655 " transform="matrix(0.117188,0,0,0.117188,-0.351562,1.793869)"/>
</g>
</svg>
