<?xml version="1.0" encoding="UTF-8"?>
<svg xmlns="http://www.w3.org/2000/svg" xmlns:xlink="http://www.w3.org/1999/xlink" width="30px" height="30px" viewBox="0 0 30 30" version="1.1">
<defs>
<filter id="alpha" filterUnits="objectBoundingBox" x="0%" y="0%" width="100%" height="100%">
  <feColorMatrix type="matrix" in="SourceGraphic" values="0 0 0 0 1 0 0 0 0 1 0 0 0 0 1 0 0 0 1 0"/>
</filter>
<mask id="mask0">
  <g filter="url(#alpha)">
<rect x="0" y="0" width="30" height="30" style="fill:rgb(0%,0%,0%);fill-opacity:0.2;stroke:none;"/>
  </g>
</mask>
<clipPath id="clip1">
  <rect x="0" y="0" width="30" height="30"/>
</clipPath>
<g id="surface5" clip-path="url(#clip1)">
<path style=" stroke:none;fill-rule:nonzero;fill:rgb(0%,0%,0%);fill-opacity:1;" d="M 26.25 15 C 26.25 21.214844 21.214844 26.25 15 26.25 C 8.785156 26.25 3.75 21.214844 3.75 15 C 3.75 8.785156 8.785156 3.75 15 3.75 C 21.214844 3.75 26.25 8.785156 26.25 15 Z M 26.25 15 "/>
</g>
</defs>
<g id="surface1">
<use xlink:href="#surface5" mask="url(#mask0)"/>
<path style=" stroke:none;fill-rule:nonzero;fill:rgb(0%,0%,0%);fill-opacity:1;" d="M 11.28125 4.335938 C 11.152344 3.835938 11.453125 3.328125 11.953125 3.199219 C 13.953125 2.683594 16.046875 2.683594 18.046875 3.199219 C 18.503906 3.316406 18.804688 3.753906 18.746094 4.222656 C 18.683594 4.695312 18.285156 5.042969 17.8125 5.042969 C 17.734375 5.042969 17.65625 5.03125 17.578125 5.011719 C 15.886719 4.578125 14.113281 4.578125 12.421875 5.011719 C 12.179688 5.074219 11.925781 5.039062 11.710938 4.910156 C 11.496094 4.785156 11.339844 4.578125 11.28125 4.335938 Z M 6.304688 6.460938 C 4.859375 7.933594 3.808594 9.746094 3.257812 11.734375 C 3.160156 12.058594 3.246094 12.410156 3.484375 12.652344 C 3.71875 12.898438 4.070312 12.992188 4.398438 12.90625 C 4.722656 12.820312 4.980469 12.5625 5.0625 12.234375 C 5.53125 10.550781 6.417969 9.015625 7.640625 7.773438 C 7.972656 7.398438 7.953125 6.828125 7.597656 6.480469 C 7.238281 6.128906 6.671875 6.121094 6.304688 6.460938 Z M 5.0625 17.757812 C 4.925781 17.261719 4.410156 16.96875 3.910156 17.105469 C 3.410156 17.246094 3.117188 17.761719 3.257812 18.261719 C 3.808594 20.25 4.859375 22.0625 6.304688 23.535156 C 6.535156 23.78125 6.886719 23.886719 7.214844 23.804688 C 7.546875 23.722656 7.804688 23.464844 7.894531 23.136719 C 7.980469 22.808594 7.886719 22.457031 7.640625 22.222656 C 6.417969 20.976562 5.53125 19.441406 5.0625 17.761719 Z M 17.578125 24.988281 C 15.886719 25.421875 14.113281 25.421875 12.421875 24.988281 C 12.09375 24.898438 11.746094 24.992188 11.507812 25.230469 C 11.269531 25.46875 11.179688 25.820312 11.273438 26.144531 C 11.363281 26.472656 11.625 26.722656 11.953125 26.800781 C 13.953125 27.316406 16.046875 27.316406 18.046875 26.800781 C 18.539062 26.667969 18.835938 26.160156 18.707031 25.664062 C 18.578125 25.167969 18.074219 24.867188 17.578125 24.988281 Z M 26.09375 17.109375 C 25.59375 16.972656 25.074219 17.261719 24.9375 17.761719 C 24.46875 19.445312 23.582031 20.980469 22.359375 22.226562 C 21.996094 22.59375 22.003906 23.1875 22.371094 23.550781 C 22.742188 23.914062 23.335938 23.910156 23.699219 23.539062 C 25.144531 22.066406 26.191406 20.253906 26.746094 18.265625 C 26.8125 18.027344 26.78125 17.769531 26.660156 17.550781 C 26.535156 17.335938 26.332031 17.175781 26.09375 17.109375 Z M 24.9375 12.242188 C 25.074219 12.742188 25.589844 13.03125 26.089844 12.894531 C 26.589844 12.753906 26.882812 12.238281 26.742188 11.738281 C 26.191406 9.753906 25.140625 7.9375 23.695312 6.464844 C 23.464844 6.21875 23.113281 6.113281 22.785156 6.199219 C 22.453125 6.28125 22.195312 6.535156 22.105469 6.863281 C 22.019531 7.191406 22.113281 7.542969 22.359375 7.78125 C 23.582031 9.023438 24.46875 10.558594 24.9375 12.238281 Z M 24.9375 12.242188 "/>
</g>
</svg>
