<?xml version="1.0" encoding="UTF-8"?>
<svg xmlns="http://www.w3.org/2000/svg" xmlns:xlink="http://www.w3.org/1999/xlink" width="30px" height="30px" viewBox="0 0 30 30" version="1.1">
<g id="surface1">
<path style=" stroke:none;fill-rule:evenodd;fill:rgb(0%,0%,0%);fill-opacity:1;" d="M 6.5625 11.25 C 6.042969 11.25 5.625 11.667969 5.625 12.1875 L 5.625 27.1875 C 5.625 27.707031 6.042969 28.125 6.5625 28.125 L 23.4375 28.125 C 23.957031 28.125 24.375 27.707031 24.375 27.1875 L 24.375 12.1875 C 24.375 11.667969 23.957031 11.25 23.4375 11.25 L 19.6875 11.25 C 19.167969 11.25 18.75 10.832031 18.75 10.3125 C 18.75 9.792969 19.167969 9.375 19.6875 9.375 L 23.4375 9.375 C 24.992188 9.375 26.25 10.632812 26.25 12.1875 L 26.25 27.1875 C 26.25 28.742188 24.992188 30 23.4375 30 L 6.5625 30 C 5.007812 30 3.75 28.742188 3.75 27.1875 L 3.75 12.1875 C 3.75 10.632812 5.007812 9.375 6.5625 9.375 L 10.3125 9.375 C 10.832031 9.375 11.25 9.792969 11.25 10.3125 C 11.25 10.832031 10.832031 11.25 10.3125 11.25 Z M 6.5625 11.25 "/>
<path style=" stroke:none;fill-rule:evenodd;fill:rgb(0%,0%,0%);fill-opacity:1;" d="M 14.335938 22.226562 C 14.511719 22.402344 14.75 22.5 15 22.5 C 15.25 22.5 15.488281 22.402344 15.664062 22.226562 L 21.289062 16.601562 C 21.65625 16.234375 21.65625 15.640625 21.289062 15.273438 C 20.921875 14.90625 20.328125 14.90625 19.960938 15.273438 L 15.9375 19.300781 L 15.9375 2.8125 C 15.9375 2.292969 15.519531 1.875 15 1.875 C 14.480469 1.875 14.0625 2.292969 14.0625 2.8125 L 14.0625 19.300781 L 10.039062 15.273438 C 9.671875 14.90625 9.078125 14.90625 8.710938 15.273438 C 8.34375 15.640625 8.34375 16.234375 8.710938 16.601562 Z M 14.335938 22.226562 "/>
</g>
</svg>
