<svg xmlns="http://www.w3.org/2000/svg" xmlns:xlink="http://www.w3.org/1999/xlink" xmlns:serif="http://www.serif.com/" width="100%" height="100%" viewBox="0 0 18 18" version="1.1" xml:space="preserve" style="fill-rule:evenodd;clip-rule:evenodd;stroke-linecap:round;stroke-linejoin:round;stroke-miterlimit:1.5;"><g><path id="arrows" d="M16.875,12.63c0,0.309 -0.254,0.563 -0.563,0.563l-14.625,-0c-0.308,-0 -0.562,-0.254 -0.562,-0.563c-0,-0.308 0.254,-0.562 0.562,-0.562l14.625,-0c0.309,-0 0.563,0.254 0.563,0.562Z" style="fill-rule:nonzero;"/><path id="arrows1" serif:id="arrows" d="M9.562,8.46l1.29,-1.29c0.105,-0.106 0.249,-0.165 0.398,-0.165c0.309,-0 0.563,0.254 0.563,0.563c0,0.149 -0.059,0.293 -0.165,0.398l-2.25,2.25c-0.105,0.106 -0.249,0.165 -0.398,0.165c-0.149,0 -0.293,-0.059 -0.398,-0.165l-2.25,-2.25c-0.106,-0.105 -0.165,-0.249 -0.165,-0.398c-0,-0.309 0.254,-0.563 0.563,-0.563c0.149,-0 0.293,0.059 0.398,0.165l1.289,1.29l0,-4.267c0,-0.309 0.254,-0.563 0.563,-0.563c0.309,0 0.562,0.254 0.562,0.563l0,4.267Z" style="fill-rule:nonzero;"/><circle cx="9" cy="12.849" r="1.521" style="fill:#fff;stroke:#000;stroke-width:1.02px;"/></g></svg>