<?xml version="1.0" encoding="UTF-8"?>
<svg xmlns="http://www.w3.org/2000/svg" xmlns:xlink="http://www.w3.org/1999/xlink" width="30px" height="30px" viewBox="0 0 30 30" version="1.1">
<g id="surface1">
<path style="fill:none;stroke-width:4;stroke-linecap:round;stroke-linejoin:round;stroke:rgb(13.725491%,12.156863%,12.54902%);stroke-opacity:1;stroke-dasharray:4,6;stroke-miterlimit:10;" d="M 53.38125 10.701562 L 53.38125 51.876562 " transform="matrix(0.277778,0,0,0.277778,0,0)"/>
<path style="fill:none;stroke-width:4;stroke-linecap:round;stroke-linejoin:round;stroke:rgb(13.725491%,12.156863%,12.54902%);stroke-opacity:1;stroke-dasharray:4,6;stroke-miterlimit:10;" d="M 16.7625 31.289062 L 91.18125 31.289062 " transform="matrix(0.277778,0,0,0.277778,0,0)"/>
<path style="fill:none;stroke-width:5;stroke-linecap:butt;stroke-linejoin:round;stroke:rgb(0%,0%,0%);stroke-opacity:1;stroke-miterlimit:2;" d="M 15.4125 10.054687 L 90.5625 10.054687 L 90.5625 52.692187 L 15.4125 52.692187 Z M 15.4125 10.054687 " transform="matrix(0.277778,0,0,0.277778,0,0)"/>
<path style="fill:none;stroke-width:4;stroke-linecap:round;stroke-linejoin:round;stroke:rgb(13.725491%,12.156863%,12.54902%);stroke-opacity:1;stroke-dasharray:4,6;stroke-miterlimit:10;" d="M 53.8875 53.198437 L 53.8875 94.373437 " transform="matrix(0.277778,0,0,0.277778,0,0)"/>
<path style="fill:none;stroke-width:4;stroke-linecap:round;stroke-linejoin:round;stroke:rgb(13.725491%,12.156863%,12.54902%);stroke-opacity:1;stroke-dasharray:4,6;stroke-miterlimit:10;" d="M 17.26875 73.785937 L 91.6875 73.785937 " transform="matrix(0.277778,0,0,0.277778,0,0)"/>
<path style="fill:none;stroke-width:5;stroke-linecap:butt;stroke-linejoin:round;stroke:rgb(0%,0%,0%);stroke-opacity:1;stroke-miterlimit:2;" d="M 15.91875 52.551562 L 91.06875 52.551562 L 91.06875 95.203125 L 15.91875 95.203125 Z M 15.91875 52.551562 " transform="matrix(0.277778,0,0,0.277778,0,0)"/>
</g>
</svg>
