<?xml version="1.0" encoding="UTF-8"?>
<svg xmlns="http://www.w3.org/2000/svg" xmlns:xlink="http://www.w3.org/1999/xlink" width="30px" height="30px" viewBox="0 0 30 30" version="1.1">
<g id="surface1">
<path style=" stroke:none;fill-rule:nonzero;fill:rgb(0%,0%,0%);fill-opacity:1;" d="M 14.125 14.894531 L 9.707031 11.398438 C 9.617188 11.328125 9.492188 11.390625 9.492188 11.5 L 9.492188 14.003906 L 5.390625 14.003906 L 5.390625 5.390625 L 11.367188 5.390625 L 11.367188 9.140625 C 11.367188 9.203125 11.421875 9.257812 11.484375 9.257812 L 13.242188 9.257812 C 13.304688 9.257812 13.359375 9.203125 13.359375 9.140625 L 13.359375 4.21875 C 13.359375 3.765625 12.992188 3.398438 12.539062 3.398438 L 4.21875 3.398438 C 3.765625 3.398438 3.398438 3.765625 3.398438 4.21875 L 3.398438 25.78125 C 3.398438 26.234375 3.765625 26.601562 4.21875 26.601562 L 12.539062 26.601562 C 12.992188 26.601562 13.359375 26.234375 13.359375 25.78125 L 13.359375 20.859375 C 13.359375 20.796875 13.304688 20.742188 13.242188 20.742188 L 11.484375 20.742188 C 11.421875 20.742188 11.367188 20.796875 11.367188 20.859375 L 11.367188 24.609375 L 5.390625 24.609375 L 5.390625 15.996094 L 9.492188 15.996094 L 9.492188 18.5 C 9.492188 18.609375 9.621094 18.671875 9.707031 18.601562 L 14.128906 15.105469 C 14.195312 15.054688 14.195312 14.949219 14.128906 14.894531 Z M 25.78125 3.398438 L 17.460938 3.398438 C 17.007812 3.398438 16.640625 3.765625 16.640625 4.21875 L 16.640625 9.140625 C 16.640625 9.203125 16.695312 9.257812 16.757812 9.257812 L 18.515625 9.257812 C 18.578125 9.257812 18.632812 9.203125 18.632812 9.140625 L 18.632812 5.390625 L 24.609375 5.390625 L 24.609375 14.003906 L 20.507812 14.003906 L 20.507812 11.5 C 20.507812 11.390625 20.382812 11.328125 20.292969 11.398438 L 15.871094 14.894531 C 15.804688 14.945312 15.804688 15.050781 15.871094 15.101562 L 20.292969 18.601562 C 20.378906 18.671875 20.507812 18.609375 20.507812 18.5 L 20.507812 15.996094 L 24.609375 15.996094 L 24.609375 24.609375 L 18.632812 24.609375 L 18.632812 20.859375 C 18.632812 20.796875 18.578125 20.742188 18.515625 20.742188 L 16.757812 20.742188 C 16.695312 20.742188 16.640625 20.796875 16.640625 20.859375 L 16.640625 25.78125 C 16.640625 26.234375 17.007812 26.601562 17.460938 26.601562 L 25.78125 26.601562 C 26.234375 26.601562 26.601562 26.234375 26.601562 25.78125 L 26.601562 4.21875 C 26.601562 3.765625 26.234375 3.398438 25.78125 3.398438 Z M 25.78125 3.398438 "/>
</g>
</svg>
