<?xml version="1.0" encoding="UTF-8" standalone="no"?><!DOCTYPE svg PUBLIC "-//W3C//DTD SVG 1.1//EN" "http://www.w3.org/Graphics/SVG/1.1/DTD/svg11.dtd"><svg width="100%" height="100%" viewBox="0 0 18 18" version="1.1" xmlns="http://www.w3.org/2000/svg" xmlns:xlink="http://www.w3.org/1999/xlink" xml:space="preserve" xmlns:serif="http://www.serif.com/" style="fill-rule:evenodd;clip-rule:evenodd;stroke-linejoin:round;stroke-miterlimit:1.5;"><g><rect x="2.21" y="1.818" width="10.898" height="10.384" style="fill:#d9d9d9;stroke:#000;stroke-width:0.96px;"/><rect x="4.892" y="12.202" width="10.898" height="3.98" style="fill:#d9d9d9;stroke:#000;stroke-width:0.96px;"/><path id="arrows" d="M8.313,9.762l-1.29,1.29c-0.105,0.106 -0.249,0.165 -0.398,0.165c-0.309,0 -0.563,-0.254 -0.563,-0.563c0,-0.149 0.059,-0.293 0.165,-0.398l2.25,-2.25c0.105,-0.106 0.249,-0.165 0.398,-0.165c0.149,0 0.293,0.059 0.398,0.165l2.25,2.25c0.106,0.105 0.165,0.249 0.165,0.398c0,0.309 -0.254,0.563 -0.563,0.563c-0.149,0 -0.293,-0.059 -0.398,-0.165l-1.289,-1.29l0,4.267c0,0.309 -0.254,0.563 -0.563,0.563c-0.309,0 -0.562,-0.254 -0.562,-0.563l0,-4.267Z" style="fill-rule:nonzero;"/></g></svg>