<?xml version="1.0" encoding="UTF-8"?>
<svg xmlns="http://www.w3.org/2000/svg" xmlns:xlink="http://www.w3.org/1999/xlink" width="30px" height="30px" viewBox="0 0 30 30" version="1.1">
<g id="surface1">
<path style="fill-rule:evenodd;fill:rgb(85.09804%,85.09804%,85.09804%);fill-opacity:1;stroke-width:0.96;stroke-linecap:butt;stroke-linejoin:round;stroke:rgb(0%,0%,0%);stroke-opacity:1;stroke-miterlimit:1.5;" d="M 2.210156 1.81875 L 13.108594 1.81875 L 13.108594 12.201562 L 2.210156 12.201562 Z M 2.210156 1.81875 " transform="matrix(1.666667,0,0,1.666667,0,0)"/>
<path style="fill-rule:evenodd;fill:rgb(85.09804%,85.09804%,85.09804%);fill-opacity:1;stroke-width:0.96;stroke-linecap:butt;stroke-linejoin:round;stroke:rgb(0%,0%,0%);stroke-opacity:1;stroke-miterlimit:1.5;" d="M 4.891406 12.201562 L 15.789844 12.201562 L 15.789844 16.18125 L 4.891406 16.18125 Z M 4.891406 12.201562 " transform="matrix(1.666667,0,0,1.666667,0,0)"/>
<path style=" stroke:none;fill-rule:nonzero;fill:rgb(0%,0%,0%);fill-opacity:1;" d="M 13.855469 16.269531 L 11.703125 18.421875 C 11.53125 18.597656 11.289062 18.695312 11.042969 18.695312 C 10.527344 18.695312 10.101562 18.273438 10.101562 17.757812 C 10.101562 17.507812 10.203125 17.269531 10.378906 17.09375 L 14.128906 13.34375 C 14.304688 13.167969 14.542969 13.066406 14.792969 13.066406 C 15.039062 13.066406 15.28125 13.167969 15.453125 13.34375 L 19.203125 17.09375 C 19.382812 17.269531 19.480469 17.507812 19.480469 17.757812 C 19.480469 18.273438 19.058594 18.695312 18.542969 18.695312 C 18.292969 18.695312 18.054688 18.597656 17.878906 18.421875 L 15.730469 16.269531 L 15.730469 23.382812 C 15.730469 23.898438 15.308594 24.320312 14.792969 24.320312 C 14.277344 24.320312 13.855469 23.898438 13.855469 23.382812 Z M 13.855469 16.269531 "/>
</g>
</svg>
