<?xml version="1.0" encoding="UTF-8"?>
<svg xmlns="http://www.w3.org/2000/svg" xmlns:xlink="http://www.w3.org/1999/xlink" width="30px" height="30px" viewBox="0 0 30 30" version="1.1">
<g id="surface1">
<path style=" stroke:none;fill-rule:nonzero;fill:rgb(0%,0%,0%);fill-opacity:1;" d="M 28.125 21.050781 C 28.125 21.566406 27.703125 21.988281 27.1875 21.988281 L 2.8125 21.988281 C 2.296875 21.988281 1.875 21.566406 1.875 21.050781 C 1.875 20.535156 2.296875 20.113281 2.8125 20.113281 L 27.1875 20.113281 C 27.703125 20.113281 28.125 20.535156 28.125 21.050781 Z M 28.125 21.050781 "/>
<path style=" stroke:none;fill-rule:nonzero;fill:rgb(0%,0%,0%);fill-opacity:1;" d="M 15.9375 14.101562 L 18.085938 11.949219 C 18.261719 11.773438 18.5 11.675781 18.75 11.675781 C 19.265625 11.675781 19.6875 12.097656 19.6875 12.613281 C 19.6875 12.863281 19.589844 13.101562 19.414062 13.277344 L 15.664062 17.027344 C 15.488281 17.203125 15.25 17.300781 15 17.300781 C 14.75 17.300781 14.511719 17.203125 14.335938 17.027344 L 10.585938 13.277344 C 10.410156 13.101562 10.3125 12.863281 10.3125 12.613281 C 10.3125 12.097656 10.734375 11.675781 11.25 11.675781 C 11.5 11.675781 11.738281 11.773438 11.914062 11.949219 L 14.0625 14.101562 L 14.0625 6.988281 C 14.0625 6.472656 14.484375 6.050781 15 6.050781 C 15.515625 6.050781 15.9375 6.472656 15.9375 6.988281 Z M 15.9375 14.101562 "/>
<path style="fill-rule:evenodd;fill:rgb(100%,100%,100%);fill-opacity:1;stroke-width:1.02;stroke-linecap:round;stroke-linejoin:round;stroke:rgb(0%,0%,0%);stroke-opacity:1;stroke-miterlimit:1.5;" d="M 10.521094 12.848437 C 10.521094 12.009375 9.839062 11.327344 9 11.327344 C 8.160937 11.327344 7.478906 12.009375 7.478906 12.848437 C 7.478906 13.689844 8.160937 14.369531 9 14.369531 C 9.839062 14.369531 10.521094 13.689844 10.521094 12.848437 Z M 10.521094 12.848437 " transform="matrix(1.666667,0,0,1.666667,0,0)"/>
</g>
</svg>
