<?xml version="1.0" encoding="UTF-8"?>
<svg xmlns="http://www.w3.org/2000/svg" xmlns:xlink="http://www.w3.org/1999/xlink" width="30px" height="30px" viewBox="0 0 30 29" version="1.1">
<defs>
<filter id="alpha" filterUnits="objectBoundingBox" x="0%" y="0%" width="100%" height="100%">
  <feColorMatrix type="matrix" in="SourceGraphic" values="0 0 0 0 1 0 0 0 0 1 0 0 0 0 1 0 0 0 1 0"/>
</filter>
<mask id="mask0">
  <g filter="url(#alpha)">
<rect x="0" y="0" width="30" height="29" style="fill:rgb(0%,0%,0%);fill-opacity:0.2;stroke:none;"/>
  </g>
</mask>
<clipPath id="clip1">
  <rect x="0" y="0" width="30" height="29"/>
</clipPath>
<g id="surface5" clip-path="url(#clip1)">
<path style=" stroke:none;fill-rule:nonzero;fill:rgb(0%,0%,0%);fill-opacity:1;" d="M 25.3125 10.875 L 25.3125 24.46875 L 11.25 24.46875 L 11.25 18.125 L 4.6875 18.125 L 4.6875 4.53125 L 18.75 4.53125 L 18.75 10.875 Z M 25.3125 10.875 "/>
</g>
</defs>
<g id="surface1">
<use xlink:href="#surface5" mask="url(#mask0)"/>
<path style=" stroke:none;fill-rule:nonzero;fill:rgb(0%,0%,0%);fill-opacity:1;" d="M 25.3125 9.96875 L 19.6875 9.96875 L 19.6875 4.53125 C 19.6875 4.03125 19.269531 3.625 18.75 3.625 L 4.6875 3.625 C 4.167969 3.625 3.75 4.03125 3.75 4.53125 L 3.75 18.125 C 3.75 18.625 4.167969 19.03125 4.6875 19.03125 L 10.3125 19.03125 L 10.3125 24.46875 C 10.3125 24.96875 10.730469 25.375 11.25 25.375 L 25.3125 25.375 C 25.832031 25.375 26.25 24.96875 26.25 24.46875 L 26.25 10.875 C 26.25 10.375 25.832031 9.96875 25.3125 9.96875 Z M 24.375 23.5625 L 12.1875 23.5625 L 12.1875 18.125 C 12.1875 17.625 11.769531 17.21875 11.25 17.21875 L 5.625 17.21875 L 5.625 5.4375 L 17.8125 5.4375 L 17.8125 10.875 C 17.8125 11.375 18.230469 11.78125 18.75 11.78125 L 24.375 11.78125 Z M 24.375 23.5625 "/>
</g>
</svg>
