<?xml version="1.0" encoding="UTF-8" standalone="no"?>
<!DOCTYPE svg PUBLIC "-//W3C//DTD SVG 1.1//EN" "http://www.w3.org/Graphics/SVG/1.1/DTD/svg11.dtd">
<svg width="100%" height="100%" viewBox="0 0 72 72" version="1.1" xmlns="http://www.w3.org/2000/svg" xmlns:xlink="http://www.w3.org/1999/xlink" xml:space="preserve" xmlns:serif="http://www.serif.com/" style="fill-rule:evenodd;clip-rule:evenodd;">
    <g id="Model-Editor---No-Text" serif:id="Model Editor - No Text" transform="matrix(1,0,0,1,-26.75,-22.1354)">
        <g transform="matrix(0.713539,0,0,0.713539,-42.9622,-15.9884)">
            <path d="M198.605,58.474C198.605,55.69 196.344,53.429 193.559,53.429L102.744,53.429C99.96,53.429 97.699,55.69 97.699,58.474L97.699,149.289C97.699,152.074 99.96,154.335 102.744,154.335L193.559,154.335C196.344,154.335 198.605,152.074 198.605,149.289L198.605,58.474Z" style="fill:white;"/>
        </g>
        <g transform="matrix(0.0460877,0,0,0.0460877,25.056,18.1598)">
            <path d="M1137.85,369.033C1076.84,647.589 828.655,856.112 531.767,856.112C471.291,856.112 412.835,847.46 357.573,831.326L277.141,357.672L275.431,347.601L285.536,346.105L954.669,247.108L958.541,246.535L1137.85,369.033Z" style="fill:rgb(235,34,39);fill-opacity:0.75;fill-rule:nonzero;"/>
        </g>
        <g transform="matrix(0.0460877,0,0,0.0460877,25.056,18.1598)">
            <path d="M873.021,259.188L954.669,247.108L958.541,246.535L1355.1,517.451L1360.32,521.021L1359.33,527.271L1264.36,1127.49L1263.41,1133.5L1257.64,1135.42L1097,1194L1146.22,1234.34L1017.53,1258.66L1077.56,1353.11C1040.75,1342.8 1005.34,1329.18 971.629,1312.59L955.641,1286.47L945.454,1298.92C911.408,1280.1 879.32,1258.16 849.565,1233.49L796.195,949.525L1097,1194L810.227,958.905L796.195,949.525L849.565,1233.49C712.287,1119.7 624.838,947.86 624.838,755.598C624.838,552.604 722.322,372.378 873.021,259.188Z" style="fill:rgb(242,178,77);fill-opacity:0.75;fill-rule:nonzero;"/>
        </g>
        <g transform="matrix(0.0460877,0,0,0.0460877,25.056,18.1598)">
            <path d="M891.531,1364.85L874.254,1364.85L855.806,1266.7L567.411,1364.85L553.163,1364.85L552.38,1364.07L551.421,1363.11L549.954,1361.65L549.191,1359.72L449.405,1107.37C559.022,931.893 753.888,815.164 976.016,815.164C1094.51,815.164 1205.24,848.379 1299.4,906.001L1264.36,1127.49L1263.41,1133.5L1257.64,1135.42L1097,1194L1146.22,1234.34L1017.53,1258.66L1085.02,1364.85L1003.61,1364.85L955.641,1286.47L891.531,1364.85ZM796.195,949.525L810.227,958.905L1097,1194L796.195,949.525Z" style="fill:rgb(4,165,79);fill-opacity:0.75;fill-rule:nonzero;"/>
        </g>
        <g transform="matrix(0.0460877,0,0,0.0460877,25.056,18.1598)">
            <path d="M840.408,985.458C857.582,1042.32 866.814,1102.63 866.814,1165.1C866.814,1202.36 863.53,1238.85 857.235,1274.3L855.806,1266.7L567.393,1364.86L553.17,1364.86L552.38,1364.07L551.421,1363.11L549.954,1361.65L549.191,1359.72L370.995,909.076L370.611,908.103L370.436,907.073L309.429,547.813C560.759,573.173 767.82,748.562 839.674,983.044L810.227,958.905L796.195,949.525L840.408,985.458Z" style="fill:rgb(45,169,225);fill-opacity:0.75;fill-rule:nonzero;"/>
        </g>
        <g transform="matrix(0.0460877,0,0,0.0460877,25.056,18.1598)">
            <path d="M277.141,357.672L275.431,347.601L285.536,346.105L954.669,247.108L958.541,246.535L961.773,248.743L1355.1,517.451L1360.32,521.021L1359.33,527.271L1264.36,1127.49L1263.41,1133.5L1257.64,1135.42L562.604,1366.49L556.747,1368.44L552.38,1364.07L551.901,1363.59L551.421,1363.11L549.954,1361.65L549.191,1359.72L370.995,909.076L370.611,908.103L370.436,907.073L277.141,357.672Z" style="fill:none;fill-rule:nonzero;stroke:black;stroke-width:20px;"/>
        </g>
        <g id="Cursor" transform="matrix(0.0460877,0,0,0.0460877,25.056,18.1598)">
            <path d="M953.672,1293.7L1070.69,1488.23L1136.83,1450.66L1017.99,1258.12L1156.98,1242.96L817.875,956.337L866.814,1408.15L953.672,1293.7Z" style="fill:white;stroke:black;stroke-width:20px;stroke-linecap:square;stroke-linejoin:round;stroke-miterlimit:1.5;"/>
        </g>
    </g>
</svg>
