<?xml version="1.0" encoding="UTF-8"?>
<svg xmlns="http://www.w3.org/2000/svg" xmlns:xlink="http://www.w3.org/1999/xlink" width="30px" height="30px" viewBox="0 0 30 30" version="1.1">
<defs>
<filter id="alpha" filterUnits="objectBoundingBox" x="0%" y="0%" width="100%" height="100%">
  <feColorMatrix type="matrix" in="SourceGraphic" values="0 0 0 0 1 0 0 0 0 1 0 0 0 0 1 0 0 0 1 0"/>
</filter>
<mask id="mask0">
  <g filter="url(#alpha)">
<rect x="0" y="0" width="30" height="30" style="fill:rgb(0%,0%,0%);fill-opacity:0.2;stroke:none;"/>
  </g>
</mask>
<clipPath id="clip1">
  <rect x="0" y="0" width="30" height="30"/>
</clipPath>
<g id="surface5" clip-path="url(#clip1)">
<path style=" stroke:none;fill-rule:nonzero;fill:rgb(0%,0%,0%);fill-opacity:1;" d="M 18.75 11.25 L 18.75 18.75 L 11.25 18.75 L 11.25 11.25 Z M 18.75 11.25 "/>
</g>
</defs>
<g id="surface1">
<use xlink:href="#surface5" mask="url(#mask0)"/>
<path style=" stroke:none;fill-rule:nonzero;fill:rgb(0%,0%,0%);fill-opacity:1;" d="M 24.375 3.75 L 5.625 3.75 C 4.589844 3.75 3.75 4.589844 3.75 5.625 L 3.75 24.375 C 3.75 25.410156 4.589844 26.25 5.625 26.25 L 24.375 26.25 C 25.410156 26.25 26.25 25.410156 26.25 24.375 L 26.25 5.625 C 26.25 4.589844 25.410156 3.75 24.375 3.75 Z M 24.375 24.375 L 5.625 24.375 L 5.625 5.625 L 24.375 5.625 Z M 18.75 10.3125 L 11.25 10.3125 C 10.730469 10.3125 10.3125 10.730469 10.3125 11.25 L 10.3125 18.75 C 10.3125 19.269531 10.730469 19.6875 11.25 19.6875 L 18.75 19.6875 C 19.269531 19.6875 19.6875 19.269531 19.6875 18.75 L 19.6875 11.25 C 19.6875 10.730469 19.269531 10.3125 18.75 10.3125 Z M 17.8125 17.8125 L 12.1875 17.8125 L 12.1875 12.1875 L 17.8125 12.1875 Z M 17.8125 17.8125 "/>
</g>
</svg>
