<?xml version="1.0" encoding="UTF-8" standalone="no"?>
<!DOCTYPE svg PUBLIC "-//W3C//DTD SVG 1.1//EN" "http://www.w3.org/Graphics/SVG/1.1/DTD/svg11.dtd">
<svg width="100%" height="100%" viewBox="0 0 905 175" version="1.1" xmlns="http://www.w3.org/2000/svg" xmlns:xlink="http://www.w3.org/1999/xlink" xml:space="preserve" xmlns:serif="http://www.serif.com/" style="fill-rule:evenodd;clip-rule:evenodd;stroke-linejoin:round;stroke-miterlimit:2;">
    <g id="Text" transform="matrix(1,0,0,1,-11.6119,-10.8861)">
        <path d="M227.142,50.44L198.486,50.44C195.606,50.44 193.302,52.744 193.302,55.624L193.302,146.056C193.302,148.936 195.606,151.24 198.486,151.24L207.702,151.24C210.582,151.24 212.886,148.936 212.886,146.056L212.886,119.992L227.142,119.992C251.046,119.992 265.734,106.168 265.734,85.288C265.734,64.408 251.046,50.44 227.142,50.44ZM227.142,101.848L212.886,101.848L212.886,68.584L227.142,68.584C238.95,68.584 245.862,74.632 245.862,85.288C245.862,95.8 238.95,101.848 227.142,101.848ZM312.104,76.504C290.216,76.504 273.656,93.352 273.656,114.808C273.656,136.12 290.216,153.112 312.104,153.112C334.136,153.112 350.696,136.12 350.696,114.808C350.696,93.352 334.136,76.504 312.104,76.504ZM312.104,135.544C300.008,135.544 292.376,126.184 292.376,114.808C292.376,103.432 300.008,94.072 312.104,94.072C324.344,94.072 331.976,103.432 331.976,114.808C331.976,126.184 324.344,135.544 312.104,135.544ZM365.056,55.624L365.056,146.056C365.056,148.936 367.36,151.24 370.24,151.24L378.304,151.24C381.04,151.24 383.344,148.936 383.344,146.056L383.344,55.624C383.344,52.744 381.04,50.44 378.304,50.44L370.24,50.44C367.36,50.44 365.056,52.744 365.056,55.624ZM402.074,55.624L402.074,146.056C402.074,148.936 404.378,151.24 407.258,151.24L415.322,151.24C418.058,151.24 420.362,148.936 420.362,146.056L420.362,55.624C420.362,52.744 418.058,50.44 415.322,50.44L407.258,50.44C404.378,50.44 402.074,52.744 402.074,55.624ZM444.276,151.24L452.196,151.24C455.076,151.24 457.38,148.936 457.38,146.056L457.38,83.416C457.38,80.536 455.076,78.232 452.196,78.232L444.276,78.232C441.396,78.232 439.092,80.536 439.092,83.416L439.092,146.056C439.092,148.936 441.396,151.24 444.276,151.24ZM448.164,67.576C453.636,67.576 457.956,63.112 457.956,57.784C457.956,52.456 453.636,47.992 448.164,47.992C442.836,47.992 438.516,52.456 438.516,57.784C438.516,63.112 442.836,67.576 448.164,67.576ZM515.567,76.504C504.911,76.504 498.287,81.256 494.255,87.16L494.255,83.416C494.255,80.536 491.951,78.232 489.215,78.232L481.151,78.232C478.415,78.232 476.111,80.536 476.111,83.416L476.111,146.056C476.111,148.936 478.415,151.24 481.151,151.24L489.215,151.24C491.951,151.24 494.255,148.936 494.255,146.056L494.255,110.632C494.255,102.136 499.007,94.216 509.807,94.216C520.175,94.216 524.063,101.272 524.063,110.632L524.063,146.056C524.063,148.936 526.367,151.24 529.247,151.24L537.167,151.24C540.047,151.24 542.351,148.936 542.351,146.056L542.351,106.888C542.351,91.336 533.999,76.504 515.567,76.504ZM615.658,83.416L615.658,86.872C611.05,80.824 603.706,76.504 592.33,76.504C569.722,76.504 556.762,95.656 556.762,114.808C556.762,133.816 569.722,152.968 592.33,152.968C603.706,152.968 611.05,148.648 615.658,142.6L615.658,146.056C615.658,148.936 617.962,151.24 620.842,151.24L628.762,151.24C631.642,151.24 633.946,148.936 633.946,146.056L633.946,83.416C633.946,80.536 631.642,78.232 628.762,78.232L620.842,78.232C617.962,78.232 615.658,80.536 615.658,83.416ZM595.21,135.544C582.682,135.544 575.482,125.896 575.482,114.808C575.482,103.576 582.682,94.072 595.21,94.072C607.738,94.072 614.938,103.432 614.938,114.808C614.938,126.04 607.738,135.544 595.21,135.544ZM688.191,89.896L688.191,83.416C688.191,80.536 685.887,78.232 683.007,78.232L672.639,78.232L672.639,68.152C672.639,65.272 670.335,62.968 667.455,62.968L659.391,62.968C656.511,62.968 654.351,65.272 654.351,68.152L654.351,78.232L647.727,78.232C644.991,78.232 642.687,80.536 642.687,83.416L642.687,89.896C642.687,92.632 644.991,94.936 647.727,94.936L654.351,94.936L654.351,124.6C654.351,139.72 661.839,152.248 680.559,152.248C682.287,152.248 683.583,152.248 684.879,152.104C686.751,151.816 688.191,150.232 688.191,148.216L688.191,138.712C688.191,136.552 686.319,134.824 684.159,134.824L683.871,134.824C673.791,134.824 672.639,129.928 672.639,121.576L672.639,94.936L683.007,94.936C685.887,94.936 688.191,92.632 688.191,89.896ZM709.911,151.24L717.831,151.24C720.711,151.24 723.015,148.936 723.015,146.056L723.015,83.416C723.015,80.536 720.711,78.232 717.831,78.232L709.911,78.232C707.031,78.232 704.727,80.536 704.727,83.416L704.727,146.056C704.727,148.936 707.031,151.24 709.911,151.24ZM713.799,67.576C719.271,67.576 723.591,63.112 723.591,57.784C723.591,52.456 719.271,47.992 713.799,47.992C708.471,47.992 704.151,52.456 704.151,57.784C704.151,63.112 708.471,67.576 713.799,67.576ZM775.874,76.504C753.986,76.504 737.426,93.352 737.426,114.808C737.426,136.12 753.986,153.112 775.874,153.112C797.906,153.112 814.466,136.12 814.466,114.808C814.466,93.352 797.906,76.504 775.874,76.504ZM775.874,135.544C763.778,135.544 756.146,126.184 756.146,114.808C756.146,103.432 763.778,94.072 775.874,94.072C788.114,94.072 795.746,103.432 795.746,114.808C795.746,126.184 788.114,135.544 775.874,135.544ZM868.282,76.504C857.626,76.504 851.002,81.256 846.97,87.16L846.97,83.416C846.97,80.536 844.666,78.232 841.93,78.232L833.866,78.232C831.13,78.232 828.826,80.536 828.826,83.416L828.826,146.056C828.826,148.936 831.13,151.24 833.866,151.24L841.93,151.24C844.666,151.24 846.97,148.936 846.97,146.056L846.97,110.632C846.97,102.136 851.722,94.216 862.522,94.216C872.89,94.216 876.778,101.272 876.778,110.632L876.778,146.056C876.778,148.936 879.082,151.24 881.962,151.24L889.882,151.24C892.762,151.24 895.066,148.936 895.066,146.056L895.066,106.888C895.066,91.336 886.714,76.504 868.282,76.504Z" style="fill-rule:nonzero;"/>
    </g>
    <g transform="matrix(0.472982,0,0,0.472982,-54.2515,-96.0941)">
        <path d="M285.091,450.339C272.898,464.088 254.734,473.771 236.523,476.23C236.238,489.109 240.167,503.368 247.883,515.144C255.6,526.92 267.105,536.215 279.026,541.095C290.847,546.216 305.534,547.955 319.351,545.25C333.168,542.544 346.115,535.395 355.131,526.194C364.332,517.178 371.482,504.231 374.187,490.414C376.893,476.597 375.154,461.909 370.033,450.089C365.152,438.167 355.858,426.662 344.082,418.946C332.305,411.229 318.047,407.3 305.168,407.585C304.045,415.398 301.74,423.124 298.398,430.274C305.484,427.585 315.441,430.722 319.706,436.987C324.585,442.787 324.913,453.221 320.409,459.317C316.546,465.838 306.807,469.595 299.565,467.357C292.134,465.865 285.371,457.913 285.091,450.339Z" style="fill:rgb(242,178,77);fill-rule:nonzero;"/>
    </g>
    <g transform="matrix(0.472982,0,0,0.472982,-54.2515,-96.0941)">
        <path d="M251.661,375.091C237.912,362.898 228.229,344.734 225.77,326.523C212.891,326.238 198.632,330.167 186.856,337.883C175.08,345.6 165.785,357.105 160.905,369.026C155.784,380.847 154.045,395.534 156.75,409.351C159.456,423.168 166.606,436.115 175.806,445.131C184.822,454.332 197.769,461.482 211.586,464.187C225.404,466.893 240.091,465.154 251.911,460.033C263.833,455.152 275.338,445.858 283.054,434.082C290.771,422.305 294.7,408.047 294.415,395.168C286.602,394.045 278.876,391.74 271.726,388.398C274.415,395.484 271.278,405.441 265.013,409.706C259.213,414.585 248.779,414.913 242.683,410.409C236.162,406.546 232.406,396.807 234.643,389.565C236.135,382.134 244.087,375.371 251.661,375.091Z" style="fill:rgb(45,169,225);fill-rule:nonzero;"/>
    </g>
    <g transform="matrix(0.472982,0,0,0.472982,-54.2515,-96.0941)">
        <path d="M326.909,341.661C339.102,327.912 357.266,318.229 375.477,315.77C375.762,302.891 371.833,288.632 364.117,276.856C356.4,265.08 344.895,255.785 332.974,250.905C321.153,245.784 306.466,244.045 292.649,246.75C278.832,249.456 265.885,256.605 256.869,265.806C247.668,274.822 240.518,287.769 237.813,301.586C235.107,315.404 236.846,330.091 241.967,341.911C246.848,353.833 256.142,365.338 267.918,373.054C279.695,380.771 293.953,384.7 306.832,384.415C307.955,376.602 310.26,368.876 313.602,361.726C306.516,364.415 296.559,361.278 292.294,355.013C287.415,349.213 287.087,338.779 291.591,332.683C295.454,326.162 305.193,322.406 312.435,324.643C319.866,326.135 326.629,334.087 326.909,341.661Z" style="fill:rgb(4,165,79);fill-rule:nonzero;"/>
    </g>
    <g id="Red" transform="matrix(0.472982,0,0,0.472982,-54.2515,-96.0941)">
        <path d="M360.339,416.909C374.088,429.102 383.771,447.266 386.23,465.477C399.109,465.762 413.368,461.833 425.144,454.117C436.921,446.4 446.215,434.895 451.095,422.974C456.216,411.153 457.955,396.466 455.25,382.649C452.544,368.832 445.395,355.885 436.194,346.869C427.178,337.668 414.231,330.518 400.414,327.813C386.597,325.107 371.909,326.846 360.089,331.967C348.167,336.848 336.662,346.142 328.946,357.918C321.229,369.695 317.3,383.953 317.585,396.832C325.398,397.955 333.124,400.26 340.274,403.602C337.585,396.516 340.722,386.559 346.987,382.294C352.787,377.415 363.221,377.087 369.317,381.591C375.838,385.454 379.595,395.193 377.357,402.435C375.865,409.866 367.913,416.629 360.339,416.909Z" style="fill:rgb(235,34,39);fill-rule:nonzero;"/>
    </g>
</svg>
