<?xml version="1.0" encoding="UTF-8"?>
<svg xmlns="http://www.w3.org/2000/svg" xmlns:xlink="http://www.w3.org/1999/xlink" width="30px" height="30px" viewBox="0 0 30 30" version="1.1">
<g id="surface1">
<path style="fill:none;stroke-width:12;stroke-linecap:round;stroke-linejoin:round;stroke:rgb(0%,0%,0%);stroke-opacity:1;stroke-miterlimit:4;" d="M 240 128 L 96 128 L 56 48 " transform="matrix(0.117188,0,0,0.117188,0,0)"/>
<path style="fill:none;stroke-width:12;stroke-linecap:round;stroke-linejoin:round;stroke:rgb(0%,0%,0%);stroke-opacity:1;stroke-miterlimit:4;" d="M 96 128 L 96 192 " transform="matrix(0.117188,0,0,0.117188,0,0)"/>
<path style="fill:none;stroke-width:12;stroke-linecap:round;stroke-linejoin:round;stroke:rgb(0%,0%,0%);stroke-opacity:1;stroke-miterlimit:4;" d="M 240 128 L 240 184 C 240 188.433333 236.433333 192 232 192 L 24 192 C 19.566667 192 16 188.433333 16 184 L 16 128 L 56 48 L 200 48 Z M 240 128 " transform="matrix(0.117188,0,0,0.117188,0,0)"/>
<path style="fill-rule:nonzero;fill:rgb(100%,100%,100%);fill-opacity:1;stroke-width:13;stroke-linecap:round;stroke-linejoin:round;stroke:rgb(0%,0%,0%);stroke-opacity:1;stroke-miterlimit:4;" d="M 183.3 155.766667 C 144.466667 155.766667 128.933333 190.733333 128.933333 190.733333 C 128.933333 190.733333 144.466667 225.7 183.3 225.7 C 222.166667 225.7 237.7 190.733333 237.7 190.733333 C 237.7 190.733333 222.166667 155.766667 183.3 155.766667 Z M 183.3 155.766667 " transform="matrix(0.117188,0,0,0.117188,0,0)"/>
<path style=" stroke:none;fill-rule:nonzero;fill:rgb(14.509805%,14.509805%,14.509805%);fill-opacity:1;" d="M 23.757812 22.351562 C 23.757812 21.09375 22.738281 20.074219 21.480469 20.074219 C 20.226562 20.074219 19.207031 21.09375 19.207031 22.351562 C 19.207031 23.609375 20.226562 24.628906 21.480469 24.628906 C 22.738281 24.628906 23.757812 23.609375 23.757812 22.351562 Z M 23.757812 22.351562 "/>
</g>
</svg>
