<?xml version="1.0" encoding="utf-8"?>
<svg viewBox="0 0 256 256" width="256px" height="256px" xmlns="http://www.w3.org/2000/svg" xmlns:bx="https://boxy-svg.com"><defs><bx:export><bx:file format="svg"/></bx:export></defs><polyline points="240 128 96 128 56 48" fill="none" stroke="currentColor" stroke-linecap="round" stroke-linejoin="round" stroke-width="12"/><line x1="96" y1="128" x2="96" y2="192" fill="none" stroke="currentColor" stroke-linecap="round" stroke-linejoin="round" stroke-width="12"/><path d="M240,128v56a8,8,0,0,1-8,8H24a8,8,0,0,1-8-8V128L56,48H200Z" fill="none" stroke="currentColor" stroke-linecap="round" stroke-linejoin="round" stroke-width="12"/><rect width="256" height="256" fill="none" x="-9.385" y="57.077"/><path d="M 183.316 155.781 C 144.476 155.781 128.939 190.736 128.939 190.736 C 128.939 190.736 144.476 225.693 183.316 225.693 C 222.155 225.693 237.692 190.736 237.692 190.736 C 237.692 190.736 222.155 155.781 183.316 155.781 Z" stroke="currentColor" stroke-linecap="round" stroke-linejoin="round" style="fill: rgb(255, 255, 255); stroke-width: 13px;"/><circle cx="183.316" cy="190.736" r="19.42" stroke-linecap="round" stroke-linejoin="round" style="stroke-width: 8px; fill: rgb(37, 37, 37);"/></svg>