<?xml version="1.0" encoding="UTF-8"?>
<svg xmlns="http://www.w3.org/2000/svg" xmlns:xlink="http://www.w3.org/1999/xlink" width="30px" height="30px" viewBox="0 0 30 30" version="1.1">
<g id="surface1">
<path style=" stroke:none;fill-rule:nonzero;fill:rgb(0%,0%,0%);fill-opacity:1;" d="M 15 15.9375 L 15 23.4375 C 15 23.957031 14.582031 24.375 14.0625 24.375 C 13.542969 24.375 13.125 23.957031 13.125 23.4375 L 13.125 18.203125 L 5.351562 25.976562 C 4.984375 26.34375 4.390625 26.34375 4.023438 25.976562 C 3.65625 25.609375 3.65625 25.015625 4.023438 24.648438 L 11.796875 16.875 L 6.5625 16.875 C 6.042969 16.875 5.625 16.457031 5.625 15.9375 C 5.625 15.417969 6.042969 15 6.5625 15 L 14.0625 15 C 14.582031 15 15 15.417969 15 15.9375 Z M 24.375 3.75 L 9.375 3.75 C 8.339844 3.75 7.5 4.589844 7.5 5.625 L 7.5 11.25 C 7.5 11.769531 7.917969 12.1875 8.4375 12.1875 C 8.957031 12.1875 9.375 11.769531 9.375 11.25 L 9.375 5.625 L 24.375 5.625 L 24.375 20.625 L 18.75 20.625 C 18.230469 20.625 17.8125 21.042969 17.8125 21.5625 C 17.8125 22.082031 18.230469 22.5 18.75 22.5 L 24.375 22.5 C 25.410156 22.5 26.25 21.660156 26.25 20.625 L 26.25 5.625 C 26.25 4.589844 25.410156 3.75 24.375 3.75 Z M 24.375 3.75 "/>
</g>
</svg>
