<?xml version="1.0" encoding="UTF-8" standalone="no"?><!DOCTYPE svg PUBLIC "-//W3C//DTD SVG 1.1//EN" "http://www.w3.org/Graphics/SVG/1.1/DTD/svg11.dtd"><svg width="30px" height="30px" viewBox="0 0 109 109" version="1.1" xmlns="http://www.w3.org/2000/svg" xmlns:xlink="http://www.w3.org/1999/xlink" xml:space="preserve" xmlns:serif="http://www.serif.com/" style="fill-rule:evenodd;clip-rule:evenodd;stroke-linecap:round;stroke-linejoin:round;stroke-miterlimit:10;"><rect id="reassign-roofs" x="0" y="0" width="108" height="108" style="fill:none;"/><clipPath id="_clip1"><rect x="0" y="0" width="108" height="108"/></clipPath><g clip-path="url(#_clip1)"><path d="M35.284,18.982l-27.25,33.5l38.25,-18.25l-11,-15.25Z" style="fill:#d9d9d9;"/><path d="M35.107,17.46l24.697,-13.78l29.223,34.668l-25.754,13.843" style="fill:#fff;fill-rule:nonzero;stroke:#231f20;stroke-width:4px;"/><path d="M7.897,54.762l38.693,-20.797" style="fill:none;stroke:#231f20;stroke-width:4px;stroke-linejoin:miter;"/><path d="M35.107,17.46l24.697,-13.78" style="fill:none;fill-rule:nonzero;stroke:#231f20;stroke-width:4px;"/><path d="M34.804,17.93l29.223,34.668" style="fill:none;fill-rule:nonzero;stroke:#231f20;stroke-width:4px;"/><path d="M35.498,17.698l-28.664,35.132" style="fill:none;fill-rule:nonzero;stroke:#231f20;stroke-width:4px;"/><path d="M31.855,85.676l67.043,-0l0,-26.46l-28.849,-0" style="fill:none;fill-rule:nonzero;stroke:#000;stroke-width:14px;stroke-linecap:butt;stroke-linejoin:bevel;stroke-miterlimit:4;"/><path d="M40.517,66.291l-19.385,19.386l19.385,19.387l16.462,-0l-19.399,-19.387l19.399,-19.386l-16.462,0Z" style="fill-rule:nonzero;"/></g></svg>