<?xml version="1.0" encoding="UTF-8" standalone="no"?><!DOCTYPE svg PUBLIC "-//W3C//DTD SVG 1.1//EN" "http://www.w3.org/Graphics/SVG/1.1/DTD/svg11.dtd"><svg width="30px" height="30px" viewBox="0 0 30 30" version="1.1" xmlns="http://www.w3.org/2000/svg" xmlns:xlink="http://www.w3.org/1999/xlink" xml:space="preserve" xmlns:serif="http://www.serif.com/" style="fill-rule:evenodd;clip-rule:evenodd;stroke-linejoin:round;stroke-miterlimit:2;"><path d="M4.266,1.676l-0.018,-0.183l-0.168,0.017l0.002,0.168l0.184,-0.002Zm0.083,13.842l-0.184,0.001l0.184,-0.001Zm0.017,5.525l-0.184,-0.004l-0.003,0.134l0.126,0.044l0.061,-0.174Zm2.082,0.727l-0.06,0.173l0.044,0.016l0.045,-0.007l-0.029,-0.182Zm2.747,-0.975l0.176,0.055l-0.176,-0.055Zm0.009,-4.12l0.184,-0.004l-0.184,0.004Zm0.493,-1.845l-0.042,-0.179l0.042,0.179Zm0.916,0.477l-0.123,0.136l0.123,-0.136Zm0.236,0.202l0.112,-0.145l-0.112,0.145Zm3.001,4.034l-0.152,0.103l0.152,-0.103Zm0.997,1.429l0.145,-0.112l-0.145,0.112Zm0.847,0.414l0.015,-0.183l-0.015,0.183Zm5.096,0.23l-0.007,0.183l0.377,0.017l-0.221,-0.307l-0.149,0.107Zm-1.298,-1.789l0.149,-0.108l-0.149,0.108Zm-3.059,-4.318l-0.158,0.094l0.158,-0.094Zm-0.11,-0.185l0.157,-0.094l-0.157,0.094Zm-0.929,-2.56l0.181,0.033l-0.181,-0.033Zm0.625,-1.147l-0.141,-0.118l0.141,0.118Zm0.706,-1.01l0.163,0.086l-0.163,-0.086Zm0.604,-3.839l0.181,-0.028l-0.181,0.028Zm-2.053,-3.539l-0.111,0.146l0.111,-0.146Zm-5.775,-1.566l0.013,-0.183l-0.013,0.183Zm-0.502,7.572l0.118,-0.141l-0.118,0.141Zm0.736,0.344l-0.063,0.173l0.031,0.011l0.032,-0l-0,-0.184Zm-0.28,-3.583l-0.027,-0.182l-0.009,0.002l0.036,0.18Zm0.764,-0.065l0.006,-0.184l-0.006,0.184Zm0.054,0.001l0.005,-0.183l-0.005,0.183Zm1.658,0.399l-0.133,0.127l0.133,-0.127Zm0.447,1.321l0.184,-0.004l-0.184,0.004Zm-0.301,1.114l-0.145,-0.113l0.145,0.113Zm-0.025,0.031l-0.146,-0.111l0.146,0.111Zm-1.033,0.577l-0.051,-0.176l0.051,0.176Zm-6.514,1.942c-0,-3.664 -0.036,-7.958 -0.056,-9.642l-0.367,0.004c0.02,1.683 0.055,5.976 0.055,9.638l0.368,-0Zm0.027,4.2c-0.014,-1.535 -0.027,-3.067 -0.027,-4.2l-0.368,-0c0,1.136 0.014,2.669 0.028,4.203l0.367,-0.003Zm0.018,5.532c0.023,-1.012 0.003,-3.278 -0.018,-5.532l-0.367,0.003c0.02,2.259 0.04,4.516 0.017,5.52l0.368,0.009Zm1.959,0.548l-2.082,-0.726l-0.122,0.347l2.083,0.726l0.121,-0.347Zm2.51,-0.855c-0.005,0.019 -0.024,0.052 -0.073,0.096c-0.048,0.044 -0.117,0.09 -0.207,0.138c-0.18,0.095 -0.424,0.185 -0.698,0.266c-0.547,0.161 -1.186,0.279 -1.621,0.348l0.057,0.363c0.441,-0.07 1.099,-0.191 1.668,-0.359c0.284,-0.084 0.554,-0.181 0.765,-0.293c0.107,-0.056 0.204,-0.119 0.282,-0.19c0.078,-0.069 0.146,-0.156 0.179,-0.26l-0.352,-0.109Zm0.002,-4.062c0.012,0.554 0.034,1.504 0.041,2.355c0.003,0.426 0.003,0.825 -0.005,1.136c-0.004,0.157 -0.009,0.289 -0.016,0.391c-0.008,0.108 -0.017,0.164 -0.022,0.18l0.352,0.109c0.019,-0.063 0.029,-0.16 0.036,-0.264c0.008,-0.11 0.014,-0.248 0.018,-0.407c0.007,-0.317 0.007,-0.721 0.004,-1.148c-0.007,-0.854 -0.028,-1.807 -0.041,-2.36l-0.367,0.008Zm-0.01,-0.461c0,0.051 0.004,0.22 0.01,0.461l0.367,-0.008c-0.006,-0.245 -0.01,-0.408 -0.01,-0.453l-0.367,0Zm0.644,-1.567c-0.188,0.044 -0.318,0.17 -0.405,0.312c-0.086,0.14 -0.139,0.308 -0.172,0.468c-0.067,0.32 -0.067,0.655 -0.067,0.787l0.367,0c0,-0.134 0.001,-0.433 0.06,-0.711c0.029,-0.14 0.07,-0.262 0.125,-0.351c0.054,-0.088 0.113,-0.132 0.176,-0.147l-0.084,-0.358Zm1.081,0.519c-0.137,-0.123 -0.301,-0.272 -0.473,-0.379c-0.17,-0.106 -0.383,-0.193 -0.608,-0.14l0.084,0.358c0.082,-0.019 0.188,0.006 0.33,0.094c0.139,0.087 0.279,0.212 0.421,0.34l0.246,-0.273Zm0.225,0.194c-0.066,-0.051 -0.14,-0.117 -0.225,-0.194l-0.246,0.273c0.082,0.074 0.167,0.151 0.246,0.212l0.225,-0.291Zm3.04,4.075c-0.513,-0.752 -1.133,-1.662 -1.691,-2.434c-0.28,-0.385 -0.544,-0.739 -0.773,-1.022c-0.225,-0.278 -0.426,-0.503 -0.576,-0.619l-0.225,0.291c0.112,0.086 0.289,0.279 0.515,0.559c0.223,0.276 0.483,0.623 0.761,1.007c0.554,0.767 1.172,1.672 1.686,2.425l0.303,-0.207Zm0.991,1.421c-0.17,-0.219 -0.536,-0.755 -0.991,-1.421l-0.303,0.207c0.45,0.659 0.825,1.209 1.004,1.44l0.29,-0.226Zm0.717,0.343c-0.335,-0.026 -0.612,-0.208 -0.717,-0.343l-0.29,0.226c0.171,0.219 0.545,0.45 0.978,0.483l0.029,-0.366Zm5.089,0.229c-1.627,-0.069 -4.787,-0.206 -5.089,-0.229l-0.029,0.366c0.311,0.024 3.481,0.162 5.103,0.23l0.015,-0.367Zm-1.454,-1.497c0.491,0.675 0.95,1.305 1.297,1.788l0.298,-0.214c-0.347,-0.485 -0.807,-1.116 -1.298,-1.79l-0.297,0.216Zm-3.069,-4.332c0.382,0.645 1.834,2.638 3.069,4.332l0.297,-0.216c-1.243,-1.706 -2.68,-3.678 -3.05,-4.303l-0.316,0.187Zm-0.11,-0.185c0.036,0.062 0.073,0.123 0.11,0.185l0.316,-0.187c-0.037,-0.062 -0.074,-0.124 -0.111,-0.186l-0.315,0.188Zm-0.951,-2.688c-0.081,0.434 0.031,0.886 0.218,1.33c0.188,0.445 0.463,0.905 0.733,1.358l0.315,-0.188c-0.273,-0.459 -0.533,-0.896 -0.709,-1.313c-0.176,-0.418 -0.257,-0.79 -0.196,-1.12l-0.361,-0.067Zm0.664,-1.231c-0.292,0.347 -0.559,0.663 -0.664,1.231l0.361,0.067c0.086,-0.465 0.294,-0.716 0.584,-1.062l-0.281,-0.236Zm0.685,-0.977c-0.231,0.436 -0.468,0.719 -0.685,0.977l0.281,0.236c0.22,-0.261 0.479,-0.568 0.729,-1.042l-0.325,-0.171Zm0.584,-3.725c0.268,1.689 -0.039,2.691 -0.584,3.725l0.325,0.171c0.577,-1.093 0.904,-2.175 0.622,-3.953l-0.363,0.057Zm-1.982,-3.422c1.142,0.869 1.753,1.97 1.982,3.422l0.363,-0.057c-0.243,-1.536 -0.897,-2.726 -2.122,-3.657l-0.223,0.292Zm-5.677,-1.529c0.594,0.042 1.671,0.16 2.774,0.402c1.111,0.244 2.22,0.608 2.903,1.127l0.223,-0.292c-0.751,-0.571 -1.928,-0.948 -3.047,-1.193c-1.125,-0.247 -2.22,-0.367 -2.827,-0.41l-0.026,0.366Zm-5.204,0.013c1.873,-0.184 3.649,-0.122 5.204,-0.013l0.026,-0.366c-1.564,-0.11 -3.363,-0.173 -5.266,0.013l0.036,0.366Zm4.598,7.517c0.089,0.075 0.249,0.153 0.39,0.215c0.148,0.066 0.302,0.126 0.4,0.161l0.125,-0.346c-0.091,-0.033 -0.238,-0.089 -0.376,-0.15c-0.147,-0.066 -0.26,-0.125 -0.304,-0.162l-0.235,0.282Zm-0.232,-2.688c-0.026,0.192 -0.025,0.804 0.002,1.371c0.013,0.287 0.033,0.571 0.062,0.794c0.014,0.111 0.03,0.212 0.05,0.292c0.01,0.039 0.021,0.079 0.036,0.114c0.012,0.029 0.036,0.079 0.082,0.117l0.235,-0.282c0.025,0.02 0.029,0.038 0.022,0.022c-0.004,-0.01 -0.011,-0.029 -0.018,-0.059c-0.015,-0.06 -0.029,-0.145 -0.043,-0.25c-0.026,-0.209 -0.046,-0.482 -0.059,-0.765c-0.027,-0.573 -0.026,-1.152 -0.005,-1.305l-0.364,-0.049Zm0.769,-0.872c-0.189,0.037 -0.366,0.158 -0.5,0.308c-0.135,0.151 -0.24,0.349 -0.269,0.564l0.364,0.049c0.017,-0.129 0.084,-0.262 0.18,-0.369c0.096,-0.108 0.207,-0.174 0.298,-0.192l-0.073,-0.36Zm0.806,-0.069c-0.235,-0.008 -0.633,0.042 -0.797,0.067l0.055,0.364c0.165,-0.026 0.533,-0.07 0.729,-0.064l0.013,-0.367Zm0.053,0.002c-0.02,-0.001 -0.038,-0.002 -0.053,-0.002l-0.013,0.367c0.016,0.001 0.035,0.001 0.055,0.002l0.011,-0.367Zm1.786,0.455c-0.113,-0.118 -0.267,-0.2 -0.425,-0.258c-0.16,-0.059 -0.338,-0.099 -0.51,-0.127c-0.343,-0.056 -0.683,-0.065 -0.851,-0.07l-0.011,0.367c0.169,0.005 0.487,0.014 0.804,0.066c0.158,0.025 0.31,0.061 0.441,0.109c0.132,0.048 0.228,0.105 0.286,0.167l0.266,-0.254Zm0.498,1.444c-0.01,-0.376 -0.03,-0.637 -0.104,-0.855c-0.077,-0.226 -0.206,-0.391 -0.394,-0.589l-0.266,0.254c0.175,0.184 0.261,0.302 0.312,0.453c0.054,0.159 0.075,0.368 0.084,0.746l0.368,-0.009Zm-0.341,1.232c0.065,-0.083 0.16,-0.204 0.232,-0.402c0.072,-0.197 0.118,-0.459 0.109,-0.83l-0.368,0.009c0.009,0.336 -0.034,0.551 -0.086,0.695c-0.052,0.142 -0.116,0.225 -0.176,0.301l0.289,0.227Zm-0.023,0.029c0.007,-0.009 0.015,-0.019 0.023,-0.029l-0.289,-0.227c-0.008,0.011 -0.017,0.022 -0.026,0.033l0.292,0.223Zm-1.127,0.642c0.163,-0.048 0.405,-0.16 0.616,-0.276c0.107,-0.059 0.211,-0.122 0.298,-0.181c0.08,-0.056 0.164,-0.12 0.213,-0.185l-0.292,-0.223c-0.01,0.014 -0.05,0.051 -0.13,0.105c-0.073,0.051 -0.166,0.107 -0.266,0.162c-0.203,0.112 -0.417,0.209 -0.542,0.245l0.103,0.353Zm-1.336,0.212c0.156,-0 0.418,-0.032 0.668,-0.073c0.252,-0.042 0.512,-0.094 0.668,-0.139l-0.103,-0.353c-0.134,0.039 -0.376,0.089 -0.624,0.129c-0.25,0.04 -0.486,0.068 -0.609,0.068l-0,0.368Z" style="fill:#1a6afe;fill-rule:nonzero;stroke:#000;stroke-width:0.99px;"/><g><circle cx="10.285" cy="8.02" r="4.147" style="fill:#fff;"/><path d="M10.285,3.05c-2.74,-0 -4.97,2.229 -4.97,4.97c0,2.74 2.23,4.969 4.97,4.969c2.74,0 4.97,-2.229 4.97,-4.969c-0,-2.741 -2.23,-4.97 -4.97,-4.97Zm2.999,6.071c-0.096,0.144 -0.253,0.231 -0.419,0.231c-0.166,-0 -0.323,-0.087 -0.419,-0.231l-0.623,-0.934c-0.126,-0.189 -0.075,-0.445 0.114,-0.571c0.151,-0.101 0.344,-0.088 0.48,0.017c-0.184,-1.052 -1.104,-1.854 -2.207,-1.854c-1.237,-0 -2.243,1.006 -2.243,2.242c0,1.237 1.006,2.242 2.243,2.242c0.227,0 0.411,0.185 0.411,0.412c0,0.228 -0.184,0.412 -0.411,0.412c-1.691,0 -3.066,-1.375 -3.066,-3.066c-0,-1.69 1.375,-3.066 3.066,-3.066c1.576,0 2.879,1.197 3.047,2.73c0.134,-0.151 0.362,-0.184 0.535,-0.069c0.19,0.126 0.241,0.382 0.115,0.571l-0.623,0.934Z" style="fill-rule:nonzero;"/></g></svg>