<?xml version="1.0" encoding="UTF-8"?>
<svg xmlns="http://www.w3.org/2000/svg" xmlns:xlink="http://www.w3.org/1999/xlink" width="30px" height="30px" viewBox="0 0 30 30" version="1.1">
<g id="surface1">
<path style="fill:none;stroke-width:3;stroke-linecap:round;stroke-linejoin:round;stroke:rgb(13.725491%,12.156863%,12.54902%);stroke-opacity:1;stroke-miterlimit:10;" d="M 11.109375 9.703125 L 90.50625 9.703125 L 90.50625 81.801562 L 11.109375 81.801562 Z M 11.109375 9.703125 " transform="matrix(0.277778,0,0,0.277778,0,0)"/>
<path style="fill:none;stroke-width:4;stroke-linecap:round;stroke-linejoin:round;stroke:rgb(13.725491%,12.156863%,12.54902%);stroke-opacity:1;stroke-dasharray:4,6;stroke-miterlimit:10;" d="M 51.145312 11.264062 L 51.145312 80.38125 " transform="matrix(0.277778,0,0,0.277778,0,0)"/>
<path style="fill:none;stroke-width:4;stroke-linecap:round;stroke-linejoin:round;stroke:rgb(13.725491%,12.156863%,12.54902%);stroke-opacity:1;stroke-dasharray:4,6;stroke-miterlimit:10;" d="M 11.896875 44.325 L 89.128125 44.325 " transform="matrix(0.277778,0,0,0.277778,0,0)"/>
<path style=" stroke:none;fill-rule:evenodd;fill:rgb(0%,0%,0%);fill-opacity:1;" d="M 10.929688 19.171875 L 19.203125 10.730469 C 19.203125 10.730469 18.589844 10.117188 19.203125 7.710938 C 19.820312 5.308594 20.882812 4.636719 22.671875 4.023438 C 24.457031 3.40625 25.1875 4.191406 25.1875 4.191406 L 22.503906 6.929688 L 23.171875 9.335938 L 25.464844 10.0625 L 28.484375 7.320312 C 28.484375 7.320312 28.875 8.941406 28.484375 10.285156 C 28.09375 11.625 26.304688 13.695312 23.84375 13.75 C 21.382812 13.804688 22.054688 13.304688 22.054688 13.304688 L 13.558594 21.914062 C 13.558594 21.914062 13.894531 22.808594 13.726562 24.765625 C 13.558594 26.71875 11.265625 28.230469 10.035156 28.398438 C 8.804688 28.566406 7.519531 28.339844 7.519531 28.339844 L 10.316406 25.546875 L 9.699219 22.976562 L 7.296875 22.359375 L 4.5 25.097656 C 4.5 25.097656 3.71875 24.039062 4.277344 22.359375 C 4.835938 20.683594 5.84375 19.339844 7.855469 19.003906 C 9.867188 18.671875 10.929688 19.171875 10.929688 19.171875 Z M 10.929688 19.171875 "/>
</g>
</svg>
