<?xml version="1.0" encoding="UTF-8"?>
<svg xmlns="http://www.w3.org/2000/svg" xmlns:xlink="http://www.w3.org/1999/xlink" width="30px" height="30px" viewBox="0 0 30 30" version="1.1">
<g id="surface1">
<path style=" stroke:none;fill-rule:nonzero;fill:rgb(0%,0%,0%);fill-opacity:1;" d="M 15 28.125 C 14.480469 28.125 14.0625 27.707031 14.0625 27.1875 L 14.0625 2.8125 C 14.0625 2.292969 14.480469 1.875 15 1.875 C 15.519531 1.875 15.9375 2.292969 15.9375 2.8125 L 15.9375 27.1875 C 15.9375 27.707031 15.519531 28.125 15 28.125 M 0.273438 15.664062 C 0.0976562 15.488281 0 15.25 0 15 C 0 14.75 0.0976562 14.511719 0.273438 14.335938 L 4.023438 10.585938 C 4.390625 10.21875 4.984375 10.21875 5.351562 10.585938 C 5.71875 10.953125 5.71875 11.546875 5.351562 11.914062 L 3.199219 14.0625 L 10.3125 14.0625 C 10.832031 14.0625 11.25 14.480469 11.25 15 C 11.25 15.519531 10.832031 15.9375 10.3125 15.9375 L 3.199219 15.9375 L 5.351562 18.085938 C 5.71875 18.453125 5.71875 19.046875 5.351562 19.414062 C 4.984375 19.78125 4.390625 19.78125 4.023438 19.414062 Z M 18.75 15 C 18.75 14.480469 19.167969 14.0625 19.6875 14.0625 L 26.800781 14.0625 L 24.648438 11.914062 C 24.28125 11.546875 24.28125 10.953125 24.648438 10.585938 C 25.015625 10.21875 25.609375 10.21875 25.976562 10.585938 L 29.726562 14.335938 C 29.902344 14.511719 30 14.75 30 15 C 30 15.25 29.902344 15.488281 29.726562 15.664062 L 25.976562 19.414062 C 25.609375 19.78125 25.015625 19.78125 24.648438 19.414062 C 24.28125 19.046875 24.28125 18.453125 24.648438 18.085938 L 26.800781 15.9375 L 19.6875 15.9375 C 19.167969 15.9375 18.75 15.519531 18.75 15 "/>
</g>
</svg>
