<?xml version="1.0" encoding="UTF-8"?>
<svg xmlns="http://www.w3.org/2000/svg" xmlns:xlink="http://www.w3.org/1999/xlink" width="30px" height="30px" viewBox="0 0 30 30" version="1.1">
<g id="surface1">
<path style=" stroke:none;fill-rule:nonzero;fill:rgb(0%,0%,0%);fill-opacity:1;" d="M 20 13.75 L 18.75 13.75 L 18.75 3.75 C 18.75 2.375 17.625 1.25 16.25 1.25 L 13.75 1.25 C 12.375 1.25 11.25 2.375 11.25 3.75 L 11.25 13.75 L 10 13.75 C 6.550781 13.75 3.75 16.550781 3.75 20 L 3.75 28.75 L 26.25 28.75 L 26.25 20 C 26.25 16.550781 23.449219 13.75 20 13.75 Z M 13.75 3.75 L 16.25 3.75 L 16.25 13.75 L 13.75 13.75 Z M 23.75 26.25 L 21.25 26.25 L 21.25 22.5 C 21.25 21.8125 20.6875 21.25 20 21.25 C 19.3125 21.25 18.75 21.8125 18.75 22.5 L 18.75 26.25 L 16.25 26.25 L 16.25 22.5 C 16.25 21.8125 15.6875 21.25 15 21.25 C 14.3125 21.25 13.75 21.8125 13.75 22.5 L 13.75 26.25 L 11.25 26.25 L 11.25 22.5 C 11.25 21.8125 10.6875 21.25 10 21.25 C 9.3125 21.25 8.75 21.8125 8.75 22.5 L 8.75 26.25 L 6.25 26.25 L 6.25 20 C 6.25 17.9375 7.9375 16.25 10 16.25 L 20 16.25 C 22.0625 16.25 23.75 17.9375 23.75 20 Z M 23.75 26.25 "/>
</g>
</svg>
