<?xml version="1.0" encoding="UTF-8"?>
<svg xmlns="http://www.w3.org/2000/svg" xmlns:xlink="http://www.w3.org/1999/xlink" width="30px" height="30px" viewBox="0 0 30 30" version="1.1">
<defs>
<filter id="alpha" filterUnits="objectBoundingBox" x="0%" y="0%" width="100%" height="100%">
  <feColorMatrix type="matrix" in="SourceGraphic" values="0 0 0 0 1 0 0 0 0 1 0 0 0 0 1 0 0 0 1 0"/>
</filter>
<mask id="mask0">
  <g filter="url(#alpha)">
<rect x="0" y="0" width="30" height="30" style="fill:rgb(0%,0%,0%);fill-opacity:0.2;stroke:none;"/>
  </g>
</mask>
<clipPath id="clip1">
  <rect x="0" y="0" width="30" height="30"/>
</clipPath>
<g id="surface5" clip-path="url(#clip1)">
<path style=" stroke:none;fill-rule:nonzero;fill:rgb(0%,0%,0%);fill-opacity:1;" d="M 18.75 6.5625 L 11.25 6.5625 L 15 2.8125 Z M 15 27.1875 L 18.75 23.4375 L 11.25 23.4375 Z M 15 27.1875 "/>
</g>
</defs>
<g id="surface1">
<use xlink:href="#surface5" mask="url(#mask0)"/>
<path style=" stroke:none;fill-rule:nonzero;fill:rgb(0%,0%,0%);fill-opacity:1;" d="M 24.375 16.875 L 5.625 16.875 C 5.105469 16.875 4.6875 17.292969 4.6875 17.8125 C 4.6875 18.332031 5.105469 18.75 5.625 18.75 L 14.0625 18.75 L 14.0625 22.5 L 11.25 22.5 C 10.871094 22.5 10.527344 22.726562 10.382812 23.078125 C 10.238281 23.429688 10.316406 23.832031 10.585938 24.101562 L 14.335938 27.851562 C 14.511719 28.027344 14.75 28.125 15 28.125 C 15.25 28.125 15.488281 28.027344 15.664062 27.851562 L 19.414062 24.101562 C 19.683594 23.832031 19.761719 23.429688 19.617188 23.078125 C 19.472656 22.726562 19.128906 22.5 18.75 22.5 L 15.9375 22.5 L 15.9375 18.75 L 24.375 18.75 C 24.894531 18.75 25.3125 18.332031 25.3125 17.8125 C 25.3125 17.292969 24.894531 16.875 24.375 16.875 Z M 15 25.863281 L 13.511719 24.375 L 16.488281 24.375 Z M 5.625 13.125 L 24.375 13.125 C 24.894531 13.125 25.3125 12.707031 25.3125 12.1875 C 25.3125 11.667969 24.894531 11.25 24.375 11.25 L 15.9375 11.25 L 15.9375 7.5 L 18.75 7.5 C 19.128906 7.5 19.472656 7.273438 19.617188 6.921875 C 19.761719 6.570312 19.683594 6.167969 19.414062 5.898438 L 15.664062 2.148438 C 15.488281 1.972656 15.25 1.875 15 1.875 C 14.75 1.875 14.511719 1.972656 14.335938 2.148438 L 10.585938 5.898438 C 10.316406 6.167969 10.238281 6.570312 10.382812 6.921875 C 10.527344 7.273438 10.871094 7.5 11.25 7.5 L 14.0625 7.5 L 14.0625 11.25 L 5.625 11.25 C 5.105469 11.25 4.6875 11.667969 4.6875 12.1875 C 4.6875 12.707031 5.105469 13.125 5.625 13.125 Z M 15 4.136719 L 16.488281 5.625 L 13.511719 5.625 Z M 15 4.136719 "/>
</g>
</svg>
