<?xml version="1.0" encoding="UTF-8"?>
<svg xmlns="http://www.w3.org/2000/svg" xmlns:xlink="http://www.w3.org/1999/xlink" width="30px" height="30px" viewBox="0 0 30 29" version="1.1">
<g id="surface1">
<path style=" stroke:none;fill-rule:nonzero;fill:rgb(0%,0%,0%);fill-opacity:1;" d="M 24.375 3.851562 L 5.625 3.851562 C 4.71875 3.851562 3.984375 4.5625 3.984375 5.4375 L 3.984375 23.5625 C 3.984375 24.4375 4.71875 25.148438 5.625 25.148438 L 24.375 25.148438 C 25.28125 25.148438 26.015625 24.4375 26.015625 23.5625 L 26.015625 5.4375 C 26.015625 4.5625 25.28125 3.851562 24.375 3.851562 Z M 24.609375 23.5625 C 24.609375 23.6875 24.503906 23.789062 24.375 23.789062 L 5.625 23.789062 C 5.496094 23.789062 5.390625 23.6875 5.390625 23.5625 L 5.390625 5.4375 C 5.390625 5.3125 5.496094 5.210938 5.625 5.210938 L 24.375 5.210938 C 24.503906 5.210938 24.609375 5.3125 24.609375 5.4375 Z M 20.390625 14.5 C 20.390625 14.875 20.074219 15.179688 19.6875 15.179688 L 10.3125 15.179688 C 9.925781 15.179688 9.609375 14.875 9.609375 14.5 C 9.609375 14.125 9.925781 13.820312 10.3125 13.820312 L 19.6875 13.820312 C 20.074219 13.820312 20.390625 14.125 20.390625 14.5 Z M 20.390625 14.5 "/>
</g>
</svg>
