<?xml version="1.0" encoding="UTF-8"?>
<svg xmlns="http://www.w3.org/2000/svg" xmlns:xlink="http://www.w3.org/1999/xlink" width="30px" height="30px" viewBox="0 0 30 30" version="1.1">
<g id="surface1">
<path style="fill:none;stroke-width:1;stroke-linecap:round;stroke-linejoin:round;stroke:rgb(0%,0%,0%);stroke-opacity:1;stroke-miterlimit:1.5;" d="M 5.109375 9.967969 L 4.467187 6.733594 L 3.675 3.792187 " transform="matrix(1.666667,0,0,1.666667,0,0)"/>
<path style="fill:none;stroke-width:1;stroke-linecap:round;stroke-linejoin:round;stroke:rgb(0%,0%,0%);stroke-opacity:1;stroke-miterlimit:1.5;" d="M 14.325 3.719531 L 14.325 14.207812 " transform="matrix(1.666667,0,0,1.666667,0,0)"/>
<path style="fill:none;stroke-width:1;stroke-linecap:round;stroke-linejoin:round;stroke:rgb(0%,0%,0%);stroke-opacity:1;stroke-miterlimit:1.5;" d="M 5.109375 9.967969 L 3.675 14.280469 " transform="matrix(1.666667,0,0,1.666667,0,0)"/>
<path style=" stroke:none;fill-rule:nonzero;fill:rgb(0%,0%,0%);fill-opacity:1;" d="M 17.828125 14.359375 L 16.492188 13.023438 C 16.382812 12.917969 16.324219 12.769531 16.324219 12.613281 C 16.324219 12.296875 16.585938 12.03125 16.90625 12.03125 C 17.058594 12.03125 17.207031 12.09375 17.316406 12.203125 L 19.640625 14.527344 C 19.75 14.636719 19.8125 14.785156 19.8125 14.941406 C 19.8125 15.09375 19.75 15.242188 19.640625 15.351562 L 17.316406 17.675781 C 17.207031 17.785156 17.058594 17.847656 16.90625 17.847656 C 16.585938 17.847656 16.324219 17.582031 16.324219 17.265625 C 16.324219 17.109375 16.382812 16.960938 16.492188 16.851562 L 17.828125 15.523438 L 13.417969 15.523438 C 13.097656 15.523438 12.835938 15.257812 12.835938 14.941406 C 12.835938 14.621094 13.097656 14.359375 13.417969 14.359375 Z M 17.828125 14.359375 "/>
<path style="fill-rule:evenodd;fill:rgb(100%,100%,100%);fill-opacity:1;stroke-width:0.67;stroke-linecap:round;stroke-linejoin:round;stroke:rgb(0%,0%,0%);stroke-opacity:1;stroke-miterlimit:1.5;" d="M 13.321875 3.719531 C 13.321875 3.164062 13.771875 2.714062 14.325 2.714062 C 14.880469 2.714062 15.330469 3.164062 15.330469 3.719531 C 15.330469 4.275 14.880469 4.725 14.325 4.725 C 13.771875 4.725 13.321875 4.275 13.321875 3.719531 Z M 13.321875 3.719531 " transform="matrix(1.666667,0,0,1.666667,0,0)"/>
<path style="fill-rule:evenodd;fill:rgb(100%,100%,100%);fill-opacity:1;stroke-width:0.67;stroke-linecap:round;stroke-linejoin:round;stroke:rgb(0%,0%,0%);stroke-opacity:1;stroke-miterlimit:1.5;" d="M 2.669531 3.792187 C 2.669531 3.239062 3.119531 2.789062 3.675 2.789062 C 4.228125 2.789062 4.678125 3.239062 4.678125 3.792187 C 4.678125 4.347656 4.228125 4.797656 3.675 4.797656 C 3.119531 4.797656 2.669531 4.347656 2.669531 3.792187 Z M 2.669531 3.792187 " transform="matrix(1.666667,0,0,1.666667,0,0)"/>
<path style="fill-rule:evenodd;fill:rgb(100%,100%,100%);fill-opacity:1;stroke-width:0.67;stroke-linecap:round;stroke-linejoin:round;stroke:rgb(0%,0%,0%);stroke-opacity:1;stroke-miterlimit:1.5;" d="M 13.321875 14.207812 C 13.321875 13.652344 13.771875 13.202344 14.325 13.202344 C 14.880469 13.202344 15.330469 13.652344 15.330469 14.207812 C 15.330469 14.760937 14.880469 15.210938 14.325 15.210938 C 13.771875 15.210938 13.321875 14.760937 13.321875 14.207812 Z M 13.321875 14.207812 " transform="matrix(1.666667,0,0,1.666667,0,0)"/>
<path style="fill-rule:evenodd;fill:rgb(100%,100%,100%);fill-opacity:1;stroke-width:0.67;stroke-linecap:round;stroke-linejoin:round;stroke:rgb(0%,0%,0%);stroke-opacity:1;stroke-miterlimit:1.5;" d="M 2.669531 14.280469 C 2.669531 13.725 3.119531 13.275 3.675 13.275 C 4.228125 13.275 4.678125 13.725 4.678125 14.280469 C 4.678125 14.835938 4.228125 15.285937 3.675 15.285937 C 3.119531 15.285937 2.669531 14.835938 2.669531 14.280469 Z M 2.669531 14.280469 " transform="matrix(1.666667,0,0,1.666667,0,0)"/>
<path style="fill-rule:evenodd;fill:rgb(100%,100%,100%);fill-opacity:1;stroke-width:0.67;stroke-linecap:round;stroke-linejoin:round;stroke:rgb(0%,0%,0%);stroke-opacity:1;stroke-miterlimit:1.5;" d="M 3.464062 6.733594 C 3.464062 6.178125 3.914062 5.728125 4.467187 5.728125 C 5.022656 5.728125 5.472656 6.178125 5.472656 6.733594 C 5.472656 7.289062 5.022656 7.739062 4.467187 7.739062 C 3.914062 7.739062 3.464062 7.289062 3.464062 6.733594 Z M 3.464062 6.733594 " transform="matrix(1.666667,0,0,1.666667,0,0)"/>
<path style="fill-rule:evenodd;fill:rgb(100%,100%,100%);fill-opacity:1;stroke-width:0.67;stroke-linecap:round;stroke-linejoin:round;stroke:rgb(0%,0%,0%);stroke-opacity:1;stroke-miterlimit:1.5;" d="M 4.103906 9.967969 C 4.103906 9.414844 4.553906 8.964844 5.109375 8.964844 C 5.6625 8.964844 6.1125 9.414844 6.1125 9.967969 C 6.1125 10.521094 5.6625 10.971094 5.109375 10.971094 C 4.553906 10.971094 4.103906 10.521094 4.103906 9.967969 Z M 4.103906 9.967969 " transform="matrix(1.666667,0,0,1.666667,0,0)"/>
</g>
</svg>
