<?xml version="1.0" encoding="UTF-8" standalone="no"?><!DOCTYPE svg PUBLIC "-//W3C//DTD SVG 1.1//EN" "http://www.w3.org/Graphics/SVG/1.1/DTD/svg11.dtd"><svg width="100%" height="100%" viewBox="0 0 18 18" version="1.1" xmlns="http://www.w3.org/2000/svg" xmlns:xlink="http://www.w3.org/1999/xlink" xml:space="preserve" xmlns:serif="http://www.serif.com/" style="fill-rule:evenodd;clip-rule:evenodd;stroke-linecap:round;stroke-linejoin:round;stroke-miterlimit:1.5;"><g><path d="M5.109,9.968l-0.641,-3.235l-0.794,-2.941" style="fill:none;stroke:#000;stroke-width:1px;"/><path d="M14.326,3.719l-0,10.489" style="fill:none;stroke:#000;stroke-width:1px;"/><path d="M5.109,9.968l-1.435,4.313" style="fill:none;stroke:#000;stroke-width:1px;"/><path id="arrows" d="M10.696,8.615l-0.8,-0.8c-0.066,-0.065 -0.102,-0.154 -0.102,-0.247c-0,-0.191 0.157,-0.349 0.349,-0.349c0.092,0 0.182,0.037 0.247,0.102l1.395,1.396c0.066,0.065 0.102,0.154 0.102,0.247c0,0.092 -0.036,0.181 -0.102,0.246l-1.395,1.396c-0.065,0.065 -0.155,0.102 -0.247,0.102c-0.192,-0 -0.349,-0.158 -0.349,-0.349c-0,-0.093 0.036,-0.182 0.102,-0.247l0.8,-0.799l-2.646,-0c-0.192,-0 -0.349,-0.158 -0.349,-0.349c-0,-0.192 0.157,-0.349 0.349,-0.349l2.646,0Z" style="fill-rule:nonzero;"/><path d="M13.321,3.719c0,-0.554 0.451,-1.004 1.005,-1.004c0.554,-0 1.004,0.45 1.004,1.004c0,0.555 -0.45,1.005 -1.004,1.005c-0.554,-0 -1.005,-0.45 -1.005,-1.005Z" style="fill:#fff;stroke:#000;stroke-width:0.67px;"/><path d="M2.67,3.792c-0,-0.554 0.45,-1.004 1.004,-1.004c0.554,-0 1.005,0.45 1.005,1.004c-0,0.555 -0.451,1.005 -1.005,1.005c-0.554,-0 -1.004,-0.45 -1.004,-1.005Z" style="fill:#fff;stroke:#000;stroke-width:0.67px;"/><path d="M13.321,14.208c0,-0.555 0.451,-1.005 1.005,-1.005c0.554,0 1.004,0.45 1.004,1.005c0,0.554 -0.45,1.004 -1.004,1.004c-0.554,0 -1.005,-0.45 -1.005,-1.004Z" style="fill:#fff;stroke:#000;stroke-width:0.67px;"/><path d="M2.67,14.281c-0,-0.555 0.45,-1.005 1.004,-1.005c0.554,0 1.005,0.45 1.005,1.005c-0,0.554 -0.451,1.004 -1.005,1.004c-0.554,0 -1.004,-0.45 -1.004,-1.004Z" style="fill:#fff;stroke:#000;stroke-width:0.67px;"/><path d="M3.464,6.733c-0,-0.554 0.45,-1.004 1.004,-1.004c0.555,-0 1.005,0.45 1.005,1.004c-0,0.555 -0.45,1.005 -1.005,1.005c-0.554,-0 -1.004,-0.45 -1.004,-1.005Z" style="fill:#fff;stroke:#000;stroke-width:0.67px;"/><path d="M4.104,9.968c0,-0.554 0.45,-1.004 1.005,-1.004c0.554,-0 1.004,0.45 1.004,1.004c0,0.554 -0.45,1.004 -1.004,1.004c-0.555,0 -1.005,-0.45 -1.005,-1.004Z" style="fill:#fff;stroke:#000;stroke-width:0.67px;"/></g></svg>