<svg stroke="currentColor" fill="none" stroke-width="2" viewBox="0 0 24 24" stroke-linecap="round" stroke-linejoin="round" height="18" width="18" xmlns="http://www.w3.org/2000/svg" style="position: absolute;"><path d="M5 5m-1 0a1 1 0 1 0 2 0a1 1 0 1 0 -2 0"></path><path d="M12 5m-1 0a1 1 0 1 0 2 0a1 1 0 1 0 -2 0"></path><path d="M19 5m-1 0a1 1 0 1 0 2 0a1 1 0 1 0 -2 0"></path><path d="M5 12m-1 0a1 1 0 1 0 2 0a1 1 0 1 0 -2 0"></path><path d="M12 12m-1 0a1 1 0 1 0 2 0a1 1 0 1 0 -2 0"></path><path d="M19 12m-1 0a1 1 0 1 0 2 0a1 1 0 1 0 -2 0"></path><path d="M5 19m-1 0a1 1 0 1 0 2 0a1 1 0 1 0 -2 0"></path><path d="M12 19m-1 0a1 1 0 1 0 2 0a1 1 0 1 0 -2 0"></path><path d="M19 19m-1 0a1 1 0 1 0 2 0a1 1 0 1 0 -2 0"></path></svg>