<?xml version="1.0" encoding="UTF-8"?>
<svg xmlns="http://www.w3.org/2000/svg" xmlns:xlink="http://www.w3.org/1999/xlink" width="30px" height="30px" viewBox="0 0 30 30" version="1.1">
<g id="surface1">
<path style=" stroke:none;fill-rule:nonzero;fill:rgb(0%,0%,0%);fill-opacity:1;" d="M 15 28.125 C 14.480469 28.125 14.0625 27.707031 14.0625 27.1875 L 14.0625 2.8125 C 14.0625 2.292969 14.480469 1.875 15 1.875 C 15.519531 1.875 15.9375 2.292969 15.9375 2.8125 L 15.9375 27.1875 C 15.9375 27.707031 15.519531 28.125 15 28.125 M 0 15 C 0 14.480469 0.417969 14.0625 0.9375 14.0625 L 8.050781 14.0625 L 5.898438 11.914062 C 5.53125 11.546875 5.53125 10.953125 5.898438 10.585938 C 6.265625 10.21875 6.859375 10.21875 7.226562 10.585938 L 10.976562 14.335938 C 11.152344 14.511719 11.25 14.75 11.25 15 C 11.25 15.25 11.152344 15.488281 10.976562 15.664062 L 7.226562 19.414062 C 6.859375 19.78125 6.265625 19.78125 5.898438 19.414062 C 5.53125 19.046875 5.53125 18.453125 5.898438 18.085938 L 8.050781 15.9375 L 0.9375 15.9375 C 0.417969 15.9375 0 15.519531 0 15 M 21.949219 15.9375 L 24.101562 18.085938 C 24.46875 18.453125 24.46875 19.046875 24.101562 19.414062 C 23.734375 19.78125 23.140625 19.78125 22.773438 19.414062 L 19.023438 15.664062 C 18.847656 15.488281 18.75 15.25 18.75 15 C 18.75 14.75 18.847656 14.511719 19.023438 14.335938 L 22.773438 10.585938 C 23.140625 10.21875 23.734375 10.21875 24.101562 10.585938 C 24.46875 10.953125 24.46875 11.546875 24.101562 11.914062 L 21.949219 14.0625 L 29.0625 14.0625 C 29.582031 14.0625 30 14.480469 30 15 C 30 15.519531 29.582031 15.9375 29.0625 15.9375 Z M 21.949219 15.9375 "/>
</g>
</svg>
